%TF.GenerationSoftware,KiCad,Pcbnew,8.0.3*%
%TF.CreationDate,2024-06-14T23:05:29-04:00*%
%TF.ProjectId,eq,65712e6b-6963-4616-945f-706362585858,rev?*%
%TF.SameCoordinates,Original*%
%TF.FileFunction,Soldermask,Bot*%
%TF.FilePolarity,Negative*%
%FSLAX46Y46*%
G04 Gerber Fmt 4.6, Leading zero omitted, Abs format (unit mm)*
G04 Created by KiCad (PCBNEW 8.0.3) date 2024-06-14 23:05:29*
%MOMM*%
%LPD*%
G01*
G04 APERTURE LIST*
G04 Aperture macros list*
%AMRoundRect*
0 Rectangle with rounded corners*
0 $1 Rounding radius*
0 $2 $3 $4 $5 $6 $7 $8 $9 X,Y pos of 4 corners*
0 Add a 4 corners polygon primitive as box body*
4,1,4,$2,$3,$4,$5,$6,$7,$8,$9,$2,$3,0*
0 Add four circle primitives for the rounded corners*
1,1,$1+$1,$2,$3*
1,1,$1+$1,$4,$5*
1,1,$1+$1,$6,$7*
1,1,$1+$1,$8,$9*
0 Add four rect primitives between the rounded corners*
20,1,$1+$1,$2,$3,$4,$5,0*
20,1,$1+$1,$4,$5,$6,$7,0*
20,1,$1+$1,$6,$7,$8,$9,0*
20,1,$1+$1,$8,$9,$2,$3,0*%
G04 Aperture macros list end*
%ADD10C,1.600000*%
%ADD11O,1.600000X1.600000*%
%ADD12C,2.340000*%
%ADD13C,11.000000*%
%ADD14C,2.400000*%
%ADD15R,1.600000X1.600000*%
%ADD16RoundRect,0.102000X-0.565000X-0.565000X0.565000X-0.565000X0.565000X0.565000X-0.565000X0.565000X0*%
%ADD17C,1.334000*%
%ADD18C,1.200000*%
%ADD19C,2.000000*%
%ADD20R,2.800000X2.800000*%
%ADD21O,2.800000X2.800000*%
%ADD22R,1.800000X1.800000*%
%ADD23C,1.800000*%
G04 APERTURE END LIST*
D10*
%TO.C,R15*%
X151130000Y-52705000D03*
D11*
X143510000Y-52705000D03*
%TD*%
D12*
%TO.C,RV4*%
X178060000Y-109140000D03*
X178060000Y-104140000D03*
X178060000Y-99140000D03*
%TD*%
%TO.C,RV5*%
X178060000Y-132000000D03*
X178060000Y-127000000D03*
X178060000Y-122000000D03*
%TD*%
D10*
%TO.C,R1*%
X43180000Y-93980000D03*
D11*
X43180000Y-101600000D03*
%TD*%
D10*
%TO.C,R12*%
X107188000Y-91694000D03*
D11*
X107188000Y-84074000D03*
%TD*%
D10*
%TO.C,R18*%
X73406000Y-55880000D03*
D11*
X65786000Y-55880000D03*
%TD*%
D13*
%TO.C,H3*%
X129540000Y-30480000D03*
%TD*%
D10*
%TO.C,R8*%
X134620000Y-119634000D03*
D11*
X134620000Y-112014000D03*
%TD*%
D10*
%TO.C,R4*%
X78740000Y-100250000D03*
D11*
X78740000Y-107870000D03*
%TD*%
D10*
%TO.C,R3*%
X62230000Y-117856000D03*
D11*
X74930000Y-117856000D03*
%TD*%
D14*
%TO.C,C10*%
X155328000Y-44196000D03*
X140328000Y-44196000D03*
%TD*%
D15*
%TO.C,C16*%
X101600000Y-53340000D03*
D10*
X101600000Y-56840000D03*
%TD*%
%TO.C,R13*%
X126492000Y-49022000D03*
D11*
X126492000Y-56642000D03*
%TD*%
D12*
%TO.C,RV2*%
X178060000Y-63420000D03*
X178060000Y-58420000D03*
X178060000Y-53420000D03*
%TD*%
D10*
%TO.C,R5*%
X90170000Y-115316000D03*
D11*
X97790000Y-115316000D03*
%TD*%
D10*
%TO.C,R7*%
X153035000Y-127635000D03*
D11*
X145415000Y-127635000D03*
%TD*%
D16*
%TO.C,U1*%
X109695000Y-112395000D03*
D17*
X109695000Y-114935000D03*
X109695000Y-117475000D03*
X109695000Y-120015000D03*
X117635000Y-120015000D03*
X117635000Y-117475000D03*
X117635000Y-114935000D03*
X117635000Y-112395000D03*
%TD*%
D10*
%TO.C,R6*%
X109855000Y-125730000D03*
D11*
X117475000Y-125730000D03*
%TD*%
D10*
%TO.C,R17*%
X59944000Y-73660000D03*
D11*
X59944000Y-66040000D03*
%TD*%
D10*
%TO.C,C2*%
X68580000Y-101600000D03*
X68580000Y-106600000D03*
%TD*%
D16*
%TO.C,U4*%
X68580000Y-68072000D03*
D17*
X68580000Y-70612000D03*
X68580000Y-73152000D03*
X68580000Y-75692000D03*
X76520000Y-75692000D03*
X76520000Y-73152000D03*
X76520000Y-70612000D03*
X76520000Y-68072000D03*
%TD*%
D10*
%TO.C,C8*%
X164786000Y-81280000D03*
X157286000Y-81280000D03*
%TD*%
%TO.C,R9*%
X151130000Y-78105000D03*
D11*
X143510000Y-78105000D03*
%TD*%
D10*
%TO.C,R16*%
X129286000Y-74168000D03*
D11*
X121666000Y-74168000D03*
%TD*%
D10*
%TO.C,R19*%
X66040000Y-42926000D03*
D11*
X66040000Y-50546000D03*
%TD*%
D18*
%TO.C,C6*%
X164592000Y-103632000D03*
X163092000Y-103632000D03*
%TD*%
D13*
%TO.C,H1*%
X38100000Y-30480000D03*
%TD*%
D10*
%TO.C,R22*%
X74422000Y-81788000D03*
D11*
X82042000Y-81788000D03*
%TD*%
D13*
%TO.C,H2*%
X38100000Y-130556000D03*
%TD*%
D18*
%TO.C,C14*%
X68846000Y-61976000D03*
X70346000Y-61976000D03*
%TD*%
D10*
%TO.C,C11*%
X120396000Y-48848000D03*
X120396000Y-58848000D03*
%TD*%
D19*
%TO.C,C15*%
X74676000Y-50720000D03*
X74676000Y-40720000D03*
%TD*%
D14*
%TO.C,C7*%
X154820000Y-105664000D03*
X139820000Y-105664000D03*
%TD*%
D16*
%TO.C,U3*%
X126586000Y-60706000D03*
D17*
X126586000Y-63246000D03*
X126586000Y-65786000D03*
X126586000Y-68326000D03*
X134526000Y-68326000D03*
X134526000Y-65786000D03*
X134526000Y-63246000D03*
X134526000Y-60706000D03*
%TD*%
D12*
%TO.C,RV1*%
X178060000Y-40560000D03*
X178060000Y-35560000D03*
X178060000Y-30560000D03*
%TD*%
D10*
%TO.C,R2*%
X73660000Y-125476000D03*
D11*
X66040000Y-125476000D03*
%TD*%
D10*
%TO.C,R14*%
X120650000Y-65532000D03*
D11*
X113030000Y-65532000D03*
%TD*%
D13*
%TO.C,H4*%
X101600000Y-30480000D03*
%TD*%
D10*
%TO.C,R10*%
X114300000Y-89154000D03*
D11*
X114300000Y-81534000D03*
%TD*%
D10*
%TO.C,R21*%
X119380000Y-34290000D03*
D11*
X111760000Y-34290000D03*
%TD*%
D10*
%TO.C,C1*%
X65572000Y-131572000D03*
X70572000Y-131572000D03*
%TD*%
D12*
%TO.C,RV6*%
X50540000Y-50880000D03*
X50540000Y-55880000D03*
X50540000Y-60880000D03*
%TD*%
D16*
%TO.C,U2*%
X123030000Y-84074000D03*
D17*
X123030000Y-86614000D03*
X123030000Y-89154000D03*
X123030000Y-91694000D03*
X130970000Y-91694000D03*
X130970000Y-89154000D03*
X130970000Y-86614000D03*
X130970000Y-84074000D03*
%TD*%
D19*
%TO.C,C12*%
X170608000Y-35052000D03*
X160608000Y-35052000D03*
%TD*%
D13*
%TO.C,H5*%
X68580000Y-30480000D03*
%TD*%
D20*
%TO.C,D1*%
X88900000Y-30480000D03*
D21*
X83820000Y-30480000D03*
%TD*%
D12*
%TO.C,RV3*%
X178060000Y-86280000D03*
X178060000Y-81280000D03*
X178060000Y-76280000D03*
%TD*%
D10*
%TO.C,C3*%
X124460000Y-125690000D03*
X129460000Y-125690000D03*
%TD*%
%TO.C,C9*%
X140676000Y-91948000D03*
X135676000Y-91948000D03*
%TD*%
D22*
%TO.C,D2*%
X77216000Y-87376000D03*
D23*
X74676000Y-87376000D03*
%TD*%
D19*
%TO.C,C5*%
X152955000Y-120015000D03*
X142955000Y-120015000D03*
%TD*%
D10*
%TO.C,R20*%
X111760000Y-27940000D03*
D11*
X119380000Y-27940000D03*
%TD*%
D10*
%TO.C,R11*%
X146304000Y-92202000D03*
D11*
X146304000Y-84582000D03*
%TD*%
D19*
%TO.C,C13*%
X159940000Y-59436000D03*
X149940000Y-59436000D03*
%TD*%
D15*
%TO.C,C17*%
X113284000Y-43180000D03*
D10*
X111284000Y-43180000D03*
%TD*%
D18*
%TO.C,C4*%
X163310000Y-123444000D03*
X161810000Y-123444000D03*
%TD*%
M02*
