%TF.GenerationSoftware,KiCad,Pcbnew,8.0.3*%
%TF.CreationDate,2024-06-14T23:05:29-04:00*%
%TF.ProjectId,eq,65712e6b-6963-4616-945f-706362585858,rev?*%
%TF.SameCoordinates,Original*%
%TF.FileFunction,Copper,L2,Bot*%
%TF.FilePolarity,Positive*%
%FSLAX46Y46*%
G04 Gerber Fmt 4.6, Leading zero omitted, Abs format (unit mm)*
G04 Created by KiCad (PCBNEW 8.0.3) date 2024-06-14 23:05:29*
%MOMM*%
%LPD*%
G01*
G04 APERTURE LIST*
%TA.AperFunction,ComponentPad*%
%ADD10C,1.600000*%
%TD*%
%TA.AperFunction,ComponentPad*%
%ADD11O,1.600000X1.600000*%
%TD*%
%TA.AperFunction,ComponentPad*%
%ADD12C,2.340000*%
%TD*%
%TA.AperFunction,ComponentPad*%
%ADD13C,11.000000*%
%TD*%
%TA.AperFunction,ComponentPad*%
%ADD14C,2.400000*%
%TD*%
%TA.AperFunction,ComponentPad*%
%ADD15R,1.600000X1.600000*%
%TD*%
%TA.AperFunction,ComponentPad*%
%ADD16R,1.130000X1.130000*%
%TD*%
%TA.AperFunction,ComponentPad*%
%ADD17C,1.130000*%
%TD*%
%TA.AperFunction,ComponentPad*%
%ADD18C,1.200000*%
%TD*%
%TA.AperFunction,ComponentPad*%
%ADD19C,2.000000*%
%TD*%
%TA.AperFunction,ComponentPad*%
%ADD20R,2.800000X2.800000*%
%TD*%
%TA.AperFunction,ComponentPad*%
%ADD21O,2.800000X2.800000*%
%TD*%
%TA.AperFunction,ComponentPad*%
%ADD22R,1.800000X1.800000*%
%TD*%
%TA.AperFunction,ComponentPad*%
%ADD23C,1.800000*%
%TD*%
%TA.AperFunction,ViaPad*%
%ADD24C,0.600000*%
%TD*%
%TA.AperFunction,Conductor*%
%ADD25C,0.500000*%
%TD*%
G04 APERTURE END LIST*
D10*
%TO.P,R15,1*%
%TO.N,Net-(C12-Pad2)*%
X151130000Y-52705000D03*
D11*
%TO.P,R15,2*%
%TO.N,Net-(U3B--)*%
X143510000Y-52705000D03*
%TD*%
D12*
%TO.P,RV4,1,1*%
%TO.N,/BOOST RAIL*%
X178060000Y-109140000D03*
%TO.P,RV4,2,2*%
%TO.N,Net-(C6-Pad1)*%
X178060000Y-104140000D03*
%TO.P,RV4,3,3*%
%TO.N,/CUT RAIL*%
X178060000Y-99140000D03*
%TD*%
%TO.P,RV5,1,1*%
%TO.N,/BOOST RAIL*%
X178060000Y-132000000D03*
%TO.P,RV5,2,2*%
%TO.N,Net-(C4-Pad1)*%
X178060000Y-127000000D03*
%TO.P,RV5,3,3*%
%TO.N,/CUT RAIL*%
X178060000Y-122000000D03*
%TD*%
D10*
%TO.P,R1,1*%
%TO.N,GND*%
X43180000Y-93980000D03*
D11*
%TO.P,R1,2*%
%TO.N,/INPUT*%
X43180000Y-101600000D03*
%TD*%
D10*
%TO.P,R12,1*%
%TO.N,Net-(U2B-+)*%
X107188000Y-91694000D03*
D11*
%TO.P,R12,2*%
%TO.N,+4.5V*%
X107188000Y-84074000D03*
%TD*%
D10*
%TO.P,R18,1*%
%TO.N,Net-(C14-Pad2)*%
X73406000Y-55880000D03*
D11*
%TO.P,R18,2*%
%TO.N,Net-(C15-Pad1)*%
X65786000Y-55880000D03*
%TD*%
D13*
%TO.P,H3,1,1*%
%TO.N,+4.5V*%
X129540000Y-30480000D03*
%TD*%
D10*
%TO.P,R8,1*%
%TO.N,Net-(U1B-+)*%
X134620000Y-119634000D03*
D11*
%TO.P,R8,2*%
%TO.N,+4.5V*%
X134620000Y-112014000D03*
%TD*%
D10*
%TO.P,R4,1*%
%TO.N,+4.5V*%
X78740000Y-100250000D03*
D11*
%TO.P,R4,2*%
%TO.N,Net-(U1A--)*%
X78740000Y-107870000D03*
%TD*%
D10*
%TO.P,R3,1*%
%TO.N,Net-(C2-Pad2)*%
X62230000Y-117856000D03*
D11*
%TO.P,R3,2*%
%TO.N,Net-(U1A--)*%
X74930000Y-117856000D03*
%TD*%
D14*
%TO.P,C10,1*%
%TO.N,Net-(C10-Pad1)*%
X155328000Y-44196000D03*
%TO.P,C10,2*%
%TO.N,Net-(C10-Pad2)*%
X140328000Y-44196000D03*
%TD*%
D15*
%TO.P,C16,1*%
%TO.N,+9V*%
X101600000Y-53340000D03*
D10*
%TO.P,C16,2*%
%TO.N,GND*%
X101600000Y-56840000D03*
%TD*%
%TO.P,R13,1*%
%TO.N,Net-(C10-Pad2)*%
X126492000Y-49022000D03*
D11*
%TO.P,R13,2*%
%TO.N,Net-(U3A--)*%
X126492000Y-56642000D03*
%TD*%
D12*
%TO.P,RV2,1,1*%
%TO.N,/BOOST RAIL*%
X178060000Y-63420000D03*
%TO.P,RV2,2,2*%
%TO.N,Net-(C10-Pad1)*%
X178060000Y-58420000D03*
%TO.P,RV2,3,3*%
%TO.N,/CUT RAIL*%
X178060000Y-53420000D03*
%TD*%
D10*
%TO.P,R5,1*%
%TO.N,Net-(U1A--)*%
X90170000Y-115316000D03*
D11*
%TO.P,R5,2*%
%TO.N,Net-(R5-Pad2)*%
X97790000Y-115316000D03*
%TD*%
D10*
%TO.P,R7,1*%
%TO.N,Net-(C4-Pad2)*%
X153035000Y-127635000D03*
D11*
%TO.P,R7,2*%
%TO.N,Net-(U1B--)*%
X145415000Y-127635000D03*
%TD*%
D16*
%TO.P,U1,1*%
%TO.N,Net-(R5-Pad2)*%
X109695000Y-112395000D03*
D17*
%TO.P,U1,2,-*%
%TO.N,Net-(U1A--)*%
X109695000Y-114935000D03*
%TO.P,U1,3,+*%
%TO.N,Net-(U1A-+)*%
X109695000Y-117475000D03*
%TO.P,U1,4,V-*%
%TO.N,GND*%
X109695000Y-120015000D03*
%TO.P,U1,5,+*%
%TO.N,Net-(U1B-+)*%
X117635000Y-120015000D03*
%TO.P,U1,6,-*%
%TO.N,Net-(U1B--)*%
X117635000Y-117475000D03*
%TO.P,U1,7*%
X117635000Y-114935000D03*
%TO.P,U1,8,V+*%
%TO.N,+9V*%
X117635000Y-112395000D03*
%TD*%
D10*
%TO.P,R6,1*%
%TO.N,Net-(R5-Pad2)*%
X109855000Y-125730000D03*
D11*
%TO.P,R6,2*%
%TO.N,/CUT RAIL*%
X117475000Y-125730000D03*
%TD*%
D10*
%TO.P,R17,1*%
%TO.N,/BOOST RAIL*%
X59944000Y-73660000D03*
D11*
%TO.P,R17,2*%
%TO.N,Net-(C14-Pad1)*%
X59944000Y-66040000D03*
%TD*%
D10*
%TO.P,C2,1*%
%TO.N,+4.5V*%
X68580000Y-101600000D03*
%TO.P,C2,2*%
%TO.N,Net-(C2-Pad2)*%
X68580000Y-106600000D03*
%TD*%
D16*
%TO.P,U4,1*%
%TO.N,Net-(C14-Pad1)*%
X68580000Y-68072000D03*
D17*
%TO.P,U4,2,-*%
%TO.N,/BOOST RAIL*%
X68580000Y-70612000D03*
%TO.P,U4,3,+*%
%TO.N,/CUT RAIL*%
X68580000Y-73152000D03*
%TO.P,U4,4,V-*%
%TO.N,GND*%
X68580000Y-75692000D03*
%TO.P,U4,5,+*%
%TO.N,unconnected-(U4B-+-Pad5)*%
X76520000Y-75692000D03*
%TO.P,U4,6,-*%
%TO.N,Net-(U4B--)*%
X76520000Y-73152000D03*
%TO.P,U4,7*%
X76520000Y-70612000D03*
%TO.P,U4,8,V+*%
%TO.N,+9V*%
X76520000Y-68072000D03*
%TD*%
D10*
%TO.P,C8,1*%
%TO.N,Net-(C8-Pad1)*%
X164786000Y-81280000D03*
%TO.P,C8,2*%
%TO.N,Net-(C8-Pad2)*%
X157286000Y-81280000D03*
%TD*%
%TO.P,R9,1*%
%TO.N,Net-(C6-Pad2)*%
X151130000Y-78105000D03*
D11*
%TO.P,R9,2*%
%TO.N,Net-(U2A--)*%
X143510000Y-78105000D03*
%TD*%
D10*
%TO.P,R16,1*%
%TO.N,Net-(U3B-+)*%
X129286000Y-74168000D03*
D11*
%TO.P,R16,2*%
%TO.N,+4.5V*%
X121666000Y-74168000D03*
%TD*%
D10*
%TO.P,R19,1*%
%TO.N,GND*%
X66040000Y-42926000D03*
D11*
%TO.P,R19,2*%
%TO.N,Net-(C15-Pad1)*%
X66040000Y-50546000D03*
%TD*%
D18*
%TO.P,C6,1*%
%TO.N,Net-(C6-Pad1)*%
X164592000Y-103632000D03*
%TO.P,C6,2*%
%TO.N,Net-(C6-Pad2)*%
X163092000Y-103632000D03*
%TD*%
D13*
%TO.P,H1,1,1*%
%TO.N,/OUTPUT*%
X38100000Y-30480000D03*
%TD*%
D10*
%TO.P,R22,1*%
%TO.N,Net-(D2-A)*%
X74422000Y-81788000D03*
D11*
%TO.P,R22,2*%
%TO.N,+4.5V*%
X82042000Y-81788000D03*
%TD*%
D13*
%TO.P,H2,1,1*%
%TO.N,/INPUT*%
X38100000Y-130556000D03*
%TD*%
D18*
%TO.P,C14,1*%
%TO.N,Net-(C14-Pad1)*%
X68846000Y-61976000D03*
%TO.P,C14,2*%
%TO.N,Net-(C14-Pad2)*%
X70346000Y-61976000D03*
%TD*%
D10*
%TO.P,C11,1*%
%TO.N,Net-(C10-Pad2)*%
X120396000Y-48848000D03*
%TO.P,C11,2*%
%TO.N,Net-(U3A-+)*%
X120396000Y-58848000D03*
%TD*%
D19*
%TO.P,C15,1*%
%TO.N,Net-(C15-Pad1)*%
X74676000Y-50720000D03*
%TO.P,C15,2*%
%TO.N,GND*%
X74676000Y-40720000D03*
%TD*%
D14*
%TO.P,C7,1*%
%TO.N,Net-(C6-Pad2)*%
X154820000Y-105664000D03*
%TO.P,C7,2*%
%TO.N,Net-(U2A-+)*%
X139820000Y-105664000D03*
%TD*%
D16*
%TO.P,U3,1*%
%TO.N,Net-(U3A--)*%
X126586000Y-60706000D03*
D17*
%TO.P,U3,2,-*%
X126586000Y-63246000D03*
%TO.P,U3,3,+*%
%TO.N,Net-(U3A-+)*%
X126586000Y-65786000D03*
%TO.P,U3,4,V-*%
%TO.N,GND*%
X126586000Y-68326000D03*
%TO.P,U3,5,+*%
%TO.N,Net-(U3B-+)*%
X134526000Y-68326000D03*
%TO.P,U3,6,-*%
%TO.N,Net-(U3B--)*%
X134526000Y-65786000D03*
%TO.P,U3,7*%
X134526000Y-63246000D03*
%TO.P,U3,8,V+*%
%TO.N,+9V*%
X134526000Y-60706000D03*
%TD*%
D12*
%TO.P,RV1,1,1*%
%TO.N,/BOOST RAIL*%
X178060000Y-40560000D03*
%TO.P,RV1,2,2*%
%TO.N,Net-(C12-Pad1)*%
X178060000Y-35560000D03*
%TO.P,RV1,3,3*%
%TO.N,/CUT RAIL*%
X178060000Y-30560000D03*
%TD*%
D10*
%TO.P,R2,1*%
%TO.N,Net-(U1A-+)*%
X73660000Y-125476000D03*
D11*
%TO.P,R2,2*%
%TO.N,+4.5V*%
X66040000Y-125476000D03*
%TD*%
D10*
%TO.P,R14,1*%
%TO.N,Net-(U3A-+)*%
X120650000Y-65532000D03*
D11*
%TO.P,R14,2*%
%TO.N,+4.5V*%
X113030000Y-65532000D03*
%TD*%
D13*
%TO.P,H4,1,1*%
%TO.N,+9V*%
X101600000Y-30480000D03*
%TD*%
D10*
%TO.P,R10,1*%
%TO.N,Net-(U2A-+)*%
X114300000Y-89154000D03*
D11*
%TO.P,R10,2*%
%TO.N,+4.5V*%
X114300000Y-81534000D03*
%TD*%
D10*
%TO.P,R21,1*%
%TO.N,+4.5V*%
X119380000Y-34290000D03*
D11*
%TO.P,R21,2*%
%TO.N,GND*%
X111760000Y-34290000D03*
%TD*%
D10*
%TO.P,C1,1*%
%TO.N,/INPUT*%
X65572000Y-131572000D03*
%TO.P,C1,2*%
%TO.N,Net-(U1A-+)*%
X70572000Y-131572000D03*
%TD*%
D12*
%TO.P,RV6,1,1*%
%TO.N,Net-(C15-Pad1)*%
X50540000Y-50880000D03*
%TO.P,RV6,2,2*%
%TO.N,/OUTPUT*%
X50540000Y-55880000D03*
%TO.P,RV6,3,3*%
%TO.N,GND*%
X50540000Y-60880000D03*
%TD*%
D16*
%TO.P,U2,1*%
%TO.N,Net-(U2A--)*%
X123030000Y-84074000D03*
D17*
%TO.P,U2,2,-*%
X123030000Y-86614000D03*
%TO.P,U2,3,+*%
%TO.N,Net-(U2A-+)*%
X123030000Y-89154000D03*
%TO.P,U2,4,V-*%
%TO.N,GND*%
X123030000Y-91694000D03*
%TO.P,U2,5,+*%
%TO.N,Net-(U2B-+)*%
X130970000Y-91694000D03*
%TO.P,U2,6,-*%
%TO.N,Net-(U2B--)*%
X130970000Y-89154000D03*
%TO.P,U2,7*%
X130970000Y-86614000D03*
%TO.P,U2,8,V+*%
%TO.N,+9V*%
X130970000Y-84074000D03*
%TD*%
D19*
%TO.P,C12,1*%
%TO.N,Net-(C12-Pad1)*%
X170608000Y-35052000D03*
%TO.P,C12,2*%
%TO.N,Net-(C12-Pad2)*%
X160608000Y-35052000D03*
%TD*%
D13*
%TO.P,H5,1,1*%
%TO.N,GND*%
X68580000Y-30480000D03*
%TD*%
D20*
%TO.P,D1,1,K*%
%TO.N,+9V*%
X88900000Y-30480000D03*
D21*
%TO.P,D1,2,A*%
%TO.N,GND*%
X83820000Y-30480000D03*
%TD*%
D12*
%TO.P,RV3,1,1*%
%TO.N,/BOOST RAIL*%
X178060000Y-86280000D03*
%TO.P,RV3,2,2*%
%TO.N,Net-(C8-Pad1)*%
X178060000Y-81280000D03*
%TO.P,RV3,3,3*%
%TO.N,/CUT RAIL*%
X178060000Y-76280000D03*
%TD*%
D10*
%TO.P,C3,1*%
%TO.N,/CUT RAIL*%
X124460000Y-125690000D03*
%TO.P,C3,2*%
%TO.N,GND*%
X129460000Y-125690000D03*
%TD*%
%TO.P,C9,1*%
%TO.N,Net-(C8-Pad2)*%
X140676000Y-91948000D03*
%TO.P,C9,2*%
%TO.N,Net-(U2B-+)*%
X135676000Y-91948000D03*
%TD*%
D22*
%TO.P,D2,1,K*%
%TO.N,GND*%
X77216000Y-87376000D03*
D23*
%TO.P,D2,2,A*%
%TO.N,Net-(D2-A)*%
X74676000Y-87376000D03*
%TD*%
D19*
%TO.P,C5,1*%
%TO.N,Net-(C4-Pad2)*%
X152955000Y-120015000D03*
%TO.P,C5,2*%
%TO.N,Net-(U1B-+)*%
X142955000Y-120015000D03*
%TD*%
D10*
%TO.P,R20,1*%
%TO.N,+9V*%
X111760000Y-27940000D03*
D11*
%TO.P,R20,2*%
%TO.N,+4.5V*%
X119380000Y-27940000D03*
%TD*%
D10*
%TO.P,R11,1*%
%TO.N,Net-(C8-Pad2)*%
X146304000Y-92202000D03*
D11*
%TO.P,R11,2*%
%TO.N,Net-(U2B--)*%
X146304000Y-84582000D03*
%TD*%
D19*
%TO.P,C13,1*%
%TO.N,Net-(C12-Pad2)*%
X159940000Y-59436000D03*
%TO.P,C13,2*%
%TO.N,Net-(U3B-+)*%
X149940000Y-59436000D03*
%TD*%
D15*
%TO.P,C17,1*%
%TO.N,+4.5V*%
X113284000Y-43180000D03*
D10*
%TO.P,C17,2*%
%TO.N,GND*%
X111284000Y-43180000D03*
%TD*%
D18*
%TO.P,C4,1*%
%TO.N,Net-(C4-Pad1)*%
X163310000Y-123444000D03*
%TO.P,C4,2*%
%TO.N,Net-(C4-Pad2)*%
X161810000Y-123444000D03*
%TD*%
D24*
%TO.N,/CUT RAIL*%
X49530000Y-125095000D03*
X49530000Y-135255000D03*
X124460000Y-138430000D03*
%TO.N,Net-(U2A-+)*%
X118745000Y-90805000D03*
%TO.N,+9V*%
X93980000Y-76200000D03*
%TO.N,Net-(R5-Pad2)*%
X104775000Y-126365000D03*
%TO.N,/BOOST RAIL*%
X171450000Y-127000000D03*
X171450000Y-60960000D03*
X53975000Y-135255000D03*
%TD*%
D25*
%TO.N,/INPUT*%
X43180000Y-101600000D02*
X43180000Y-125476000D01*
X39116000Y-131572000D02*
X38100000Y-130556000D01*
X43180000Y-125476000D02*
X38100000Y-130556000D01*
X65572000Y-131572000D02*
X39116000Y-131572000D01*
%TO.N,Net-(U1A-+)*%
X104775000Y-119380000D02*
X105410000Y-118745000D01*
X108425000Y-118745000D02*
X109695000Y-117475000D01*
X105410000Y-118745000D02*
X108425000Y-118745000D01*
X100170000Y-128016000D02*
X76200000Y-128016000D01*
X104775000Y-123411000D02*
X104775000Y-119380000D01*
X76200000Y-128016000D02*
X73660000Y-125476000D01*
X100170000Y-128016000D02*
X104775000Y-123411000D01*
X70572000Y-131572000D02*
X72644000Y-131572000D01*
X72644000Y-131572000D02*
X76200000Y-128016000D01*
%TO.N,Net-(C2-Pad2)*%
X68580000Y-106600000D02*
X66755000Y-106600000D01*
X62230000Y-111125000D02*
X62230000Y-117856000D01*
X66755000Y-106600000D02*
X62230000Y-111125000D01*
%TO.N,+4.5V*%
X125730000Y-34290000D02*
X119380000Y-34290000D01*
X113030000Y-68580000D02*
X114300000Y-69850000D01*
X59055000Y-123190000D02*
X59055000Y-102870000D01*
X107188000Y-82677000D02*
X107188000Y-84074000D01*
X61341000Y-125476000D02*
X59055000Y-123190000D01*
X113030000Y-68580000D02*
X118618000Y-74168000D01*
X66040000Y-125476000D02*
X61341000Y-125476000D01*
X129540000Y-30480000D02*
X125730000Y-34290000D01*
X99441000Y-84074000D02*
X107188000Y-84074000D01*
X114300000Y-75565000D02*
X107188000Y-82677000D01*
X60325000Y-101600000D02*
X68580000Y-101600000D01*
X119380000Y-27940000D02*
X127000000Y-27940000D01*
X82042000Y-81788000D02*
X83693000Y-81788000D01*
X119380000Y-34290000D02*
X119380000Y-37084000D01*
X83693000Y-81788000D02*
X92710000Y-90805000D01*
X127381000Y-104775000D02*
X106680000Y-104775000D01*
X92710000Y-90805000D02*
X99441000Y-84074000D01*
X77390000Y-101600000D02*
X78740000Y-100250000D01*
X127000000Y-27940000D02*
X129540000Y-30480000D01*
X114300000Y-75565000D02*
X114300000Y-81534000D01*
X118618000Y-74168000D02*
X121666000Y-74168000D01*
X113030000Y-43688000D02*
X113030000Y-65532000D01*
X59055000Y-102870000D02*
X60325000Y-101600000D01*
X68580000Y-101600000D02*
X77390000Y-101600000D01*
X134620000Y-112014000D02*
X127381000Y-104775000D01*
X83265000Y-100250000D02*
X92710000Y-90805000D01*
X114300000Y-69850000D02*
X114300000Y-75565000D01*
X113284000Y-43180000D02*
X113284000Y-43434000D01*
X113030000Y-65532000D02*
X113030000Y-68580000D01*
X78740000Y-100250000D02*
X83265000Y-100250000D01*
X119380000Y-37084000D02*
X113284000Y-43180000D01*
X106680000Y-104775000D02*
X92710000Y-90805000D01*
X113284000Y-43434000D02*
X113030000Y-43688000D01*
%TO.N,/CUT RAIL*%
X124460000Y-125690000D02*
X117515000Y-125690000D01*
X178060000Y-122000000D02*
X181055000Y-122000000D01*
X180420000Y-99140000D02*
X184150000Y-102870000D01*
X184150000Y-36195000D02*
X178515000Y-30560000D01*
X180975000Y-138430000D02*
X184150000Y-135255000D01*
X49530000Y-92202000D02*
X68580000Y-73152000D01*
X49530000Y-125095000D02*
X49530000Y-92202000D01*
X178060000Y-76280000D02*
X180420000Y-76280000D01*
X178060000Y-99140000D02*
X180420000Y-99140000D01*
X184150000Y-102870000D02*
X184150000Y-80010000D01*
X124460000Y-138430000D02*
X51435000Y-138430000D01*
X178060000Y-53420000D02*
X181690000Y-53420000D01*
X184150000Y-125095000D02*
X184150000Y-135255000D01*
X184150000Y-125095000D02*
X184150000Y-102870000D01*
X181690000Y-53420000D02*
X184150000Y-55880000D01*
X117515000Y-125690000D02*
X117475000Y-125730000D01*
X184150000Y-55880000D02*
X184150000Y-36195000D01*
X124460000Y-138430000D02*
X180975000Y-138430000D01*
X181055000Y-122000000D02*
X184150000Y-125095000D01*
X178515000Y-30560000D02*
X178060000Y-30560000D01*
X49530000Y-136525000D02*
X49530000Y-135255000D01*
X49530000Y-136525000D02*
X51435000Y-138430000D01*
X184150000Y-80010000D02*
X184150000Y-55880000D01*
X180420000Y-76280000D02*
X184150000Y-80010000D01*
%TO.N,Net-(C4-Pad2)*%
X152955000Y-127555000D02*
X153035000Y-127635000D01*
X152955000Y-120015000D02*
X158381000Y-120015000D01*
X152955000Y-120015000D02*
X152955000Y-127555000D01*
X158381000Y-120015000D02*
X161810000Y-123444000D01*
%TO.N,Net-(C4-Pad1)*%
X163310000Y-123444000D02*
X174504000Y-123444000D01*
X174504000Y-123444000D02*
X178060000Y-127000000D01*
%TO.N,Net-(U1B-+)*%
X135001000Y-120015000D02*
X134620000Y-119634000D01*
X142955000Y-120015000D02*
X135001000Y-120015000D01*
%TO.N,Net-(C6-Pad2)*%
X156852000Y-103632000D02*
X154820000Y-105664000D01*
X163092000Y-103632000D02*
X156852000Y-103632000D01*
%TO.N,Net-(C6-Pad1)*%
X164592000Y-103632000D02*
X177552000Y-103632000D01*
X177552000Y-103632000D02*
X178060000Y-104140000D01*
%TO.N,Net-(U2A-+)*%
X114300000Y-89154000D02*
X118745000Y-89154000D01*
X118745000Y-89154000D02*
X123030000Y-89154000D01*
X118745000Y-89154000D02*
X118745000Y-90805000D01*
%TO.N,Net-(C8-Pad1)*%
X164786000Y-81280000D02*
X178060000Y-81280000D01*
%TO.N,Net-(C8-Pad2)*%
X146364000Y-92202000D02*
X146304000Y-92202000D01*
X157286000Y-81280000D02*
X146364000Y-92202000D01*
X146050000Y-91948000D02*
X146304000Y-92202000D01*
X140676000Y-91948000D02*
X146050000Y-91948000D01*
%TO.N,Net-(U2B-+)*%
X130970000Y-91694000D02*
X135422000Y-91694000D01*
X107188000Y-91694000D02*
X108241999Y-92747999D01*
X135422000Y-91694000D02*
X135676000Y-91948000D01*
X130469000Y-97155000D02*
X135676000Y-91948000D01*
X110490000Y-97155000D02*
X130469000Y-97155000D01*
X108241999Y-92747999D02*
X108241999Y-94906999D01*
X108241999Y-94906999D02*
X110490000Y-97155000D01*
%TO.N,Net-(C10-Pad2)*%
X126492000Y-49022000D02*
X120570000Y-49022000D01*
X120570000Y-49022000D02*
X120396000Y-48848000D01*
X126492000Y-49022000D02*
X135502000Y-49022000D01*
X135502000Y-49022000D02*
X140328000Y-44196000D01*
%TO.N,Net-(U3A-+)*%
X120650000Y-65532000D02*
X126332000Y-65532000D01*
X120396000Y-58848000D02*
X120396000Y-65278000D01*
X120396000Y-65278000D02*
X120650000Y-65532000D01*
X126332000Y-65532000D02*
X126586000Y-65786000D01*
%TO.N,Net-(C12-Pad1)*%
X177552000Y-35052000D02*
X178060000Y-35560000D01*
X170608000Y-35052000D02*
X177552000Y-35052000D01*
%TO.N,Net-(C12-Pad2)*%
X159940000Y-52705000D02*
X159940000Y-35720000D01*
X159940000Y-35720000D02*
X160608000Y-35052000D01*
X151130000Y-52705000D02*
X159940000Y-52705000D01*
X159940000Y-59436000D02*
X159940000Y-52705000D01*
%TO.N,Net-(U3B-+)*%
X135255000Y-74121000D02*
X149940000Y-59436000D01*
X135208000Y-74168000D02*
X135255000Y-74121000D01*
X134526000Y-68326000D02*
X135255000Y-69055000D01*
X129286000Y-74168000D02*
X135208000Y-74168000D01*
X135255000Y-69055000D02*
X135255000Y-74121000D01*
%TO.N,Net-(C14-Pad1)*%
X59944000Y-66040000D02*
X66548000Y-66040000D01*
X66548000Y-66040000D02*
X68580000Y-68072000D01*
X68846000Y-61976000D02*
X68846000Y-67806000D01*
X68846000Y-67806000D02*
X68580000Y-68072000D01*
%TO.N,Net-(C14-Pad2)*%
X73406000Y-55880000D02*
X73406000Y-58916000D01*
X73406000Y-58916000D02*
X70346000Y-61976000D01*
%TO.N,Net-(C15-Pad1)*%
X74676000Y-50720000D02*
X66214000Y-50720000D01*
X65786000Y-55880000D02*
X65786000Y-50800000D01*
X66040000Y-50546000D02*
X50874000Y-50546000D01*
X65786000Y-50800000D02*
X66040000Y-50546000D01*
X50874000Y-50546000D02*
X50540000Y-50880000D01*
X66214000Y-50720000D02*
X66040000Y-50546000D01*
%TO.N,+9V*%
X101600000Y-30480000D02*
X101600000Y-46990000D01*
X104140000Y-27940000D02*
X101600000Y-30480000D01*
X101600000Y-46990000D02*
X101600000Y-53340000D01*
X98298000Y-68072000D02*
X107315000Y-59055000D01*
X107315000Y-52705000D02*
X101600000Y-46990000D01*
X107315000Y-59055000D02*
X107315000Y-52705000D01*
X93980000Y-68072000D02*
X98298000Y-68072000D01*
X111760000Y-27940000D02*
X104140000Y-27940000D01*
X93980000Y-76200000D02*
X93980000Y-68072000D01*
X88900000Y-30480000D02*
X101600000Y-30480000D01*
X76520000Y-68072000D02*
X93980000Y-68072000D01*
%TO.N,/OUTPUT*%
X50540000Y-55880000D02*
X38100000Y-43440000D01*
X38100000Y-43440000D02*
X38100000Y-30480000D01*
%TO.N,Net-(U1A--)*%
X78740000Y-114046000D02*
X79121000Y-114046000D01*
X78740000Y-114046000D02*
X74930000Y-117856000D01*
X79121000Y-114046000D02*
X80391000Y-115316000D01*
X80391000Y-115316000D02*
X90170000Y-115316000D01*
X90170000Y-117475000D02*
X90170000Y-115316000D01*
X99060000Y-118745000D02*
X91440000Y-118745000D01*
X78740000Y-107870000D02*
X78740000Y-114046000D01*
X109695000Y-114935000D02*
X102870000Y-114935000D01*
X102870000Y-114935000D02*
X99060000Y-118745000D01*
X91440000Y-118745000D02*
X90170000Y-117475000D01*
%TO.N,Net-(R5-Pad2)*%
X105410000Y-125730000D02*
X104775000Y-126365000D01*
X100711000Y-112395000D02*
X97790000Y-115316000D01*
X109695000Y-112395000D02*
X100711000Y-112395000D01*
X109855000Y-125730000D02*
X105410000Y-125730000D01*
%TO.N,Net-(U1B--)*%
X145415000Y-127635000D02*
X139138503Y-127635000D01*
X126438503Y-114935000D02*
X117635000Y-114935000D01*
X139138503Y-127635000D02*
X126438503Y-114935000D01*
%TO.N,Net-(U2A--)*%
X128999000Y-78105000D02*
X123030000Y-84074000D01*
X123030000Y-84074000D02*
X123030000Y-86614000D01*
X143510000Y-78105000D02*
X128999000Y-78105000D01*
%TO.N,Net-(U2B--)*%
X146304000Y-84582000D02*
X133002000Y-84582000D01*
X133002000Y-84582000D02*
X130970000Y-86614000D01*
X130970000Y-86614000D02*
X130970000Y-89154000D01*
%TO.N,Net-(U3A--)*%
X126586000Y-56736000D02*
X126492000Y-56642000D01*
X126586000Y-60706000D02*
X126586000Y-56736000D01*
X126586000Y-60706000D02*
X126586000Y-63246000D01*
%TO.N,Net-(U3B--)*%
X134526000Y-65786000D02*
X134526000Y-65946000D01*
X134526000Y-65946000D02*
X134526000Y-63246000D01*
X143510000Y-52705000D02*
X143510000Y-54262000D01*
X143510000Y-54262000D02*
X134526000Y-63246000D01*
%TO.N,/BOOST RAIL*%
X171450000Y-130175000D02*
X171450000Y-127000000D01*
X171450000Y-60960000D02*
X171450000Y-47170000D01*
X65405000Y-71120000D02*
X66040000Y-71120000D01*
X59944000Y-73660000D02*
X62865000Y-73660000D01*
X174805000Y-135255000D02*
X166370000Y-135255000D01*
X166370000Y-135255000D02*
X171450000Y-130175000D01*
X62865000Y-73660000D02*
X65405000Y-71120000D01*
X171450000Y-47170000D02*
X178060000Y-40560000D01*
X53975000Y-135255000D02*
X166370000Y-135255000D01*
X66040000Y-71120000D02*
X66548000Y-70612000D01*
X178060000Y-132000000D02*
X174805000Y-135255000D01*
X66548000Y-70612000D02*
X68580000Y-70612000D01*
%TO.N,Net-(U4B--)*%
X76520000Y-73152000D02*
X76520000Y-70612000D01*
%TO.N,Net-(D2-A)*%
X74676000Y-82042000D02*
X74422000Y-81788000D01*
X74676000Y-87376000D02*
X74676000Y-82042000D01*
%TD*%
M02*
