%TF.GenerationSoftware,KiCad,Pcbnew,8.0.3*%
%TF.CreationDate,2024-06-14T23:05:29-04:00*%
%TF.ProjectId,eq,65712e6b-6963-4616-945f-706362585858,rev?*%
%TF.SameCoordinates,Original*%
%TF.FileFunction,Legend,Top*%
%TF.FilePolarity,Positive*%
%FSLAX46Y46*%
G04 Gerber Fmt 4.6, Leading zero omitted, Abs format (unit mm)*
G04 Created by KiCad (PCBNEW 8.0.3) date 2024-06-14 23:05:29*
%MOMM*%
%LPD*%
G01*
G04 APERTURE LIST*
%ADD10C,0.150000*%
%ADD11C,0.120000*%
%ADD12C,0.127000*%
%ADD13C,0.200000*%
G04 APERTURE END LIST*
D10*
X146677142Y-55529819D02*
X146343809Y-55053628D01*
X146105714Y-55529819D02*
X146105714Y-54529819D01*
X146105714Y-54529819D02*
X146486666Y-54529819D01*
X146486666Y-54529819D02*
X146581904Y-54577438D01*
X146581904Y-54577438D02*
X146629523Y-54625057D01*
X146629523Y-54625057D02*
X146677142Y-54720295D01*
X146677142Y-54720295D02*
X146677142Y-54863152D01*
X146677142Y-54863152D02*
X146629523Y-54958390D01*
X146629523Y-54958390D02*
X146581904Y-55006009D01*
X146581904Y-55006009D02*
X146486666Y-55053628D01*
X146486666Y-55053628D02*
X146105714Y-55053628D01*
X147629523Y-55529819D02*
X147058095Y-55529819D01*
X147343809Y-55529819D02*
X147343809Y-54529819D01*
X147343809Y-54529819D02*
X147248571Y-54672676D01*
X147248571Y-54672676D02*
X147153333Y-54767914D01*
X147153333Y-54767914D02*
X147058095Y-54815533D01*
X148534285Y-54529819D02*
X148058095Y-54529819D01*
X148058095Y-54529819D02*
X148010476Y-55006009D01*
X148010476Y-55006009D02*
X148058095Y-54958390D01*
X148058095Y-54958390D02*
X148153333Y-54910771D01*
X148153333Y-54910771D02*
X148391428Y-54910771D01*
X148391428Y-54910771D02*
X148486666Y-54958390D01*
X148486666Y-54958390D02*
X148534285Y-55006009D01*
X148534285Y-55006009D02*
X148581904Y-55101247D01*
X148581904Y-55101247D02*
X148581904Y-55339342D01*
X148581904Y-55339342D02*
X148534285Y-55434580D01*
X148534285Y-55434580D02*
X148486666Y-55482200D01*
X148486666Y-55482200D02*
X148391428Y-55529819D01*
X148391428Y-55529819D02*
X148153333Y-55529819D01*
X148153333Y-55529819D02*
X148058095Y-55482200D01*
X148058095Y-55482200D02*
X148010476Y-55434580D01*
X361679761Y-216894819D02*
X361346428Y-216418628D01*
X361108333Y-216894819D02*
X361108333Y-215894819D01*
X361108333Y-215894819D02*
X361489285Y-215894819D01*
X361489285Y-215894819D02*
X361584523Y-215942438D01*
X361584523Y-215942438D02*
X361632142Y-215990057D01*
X361632142Y-215990057D02*
X361679761Y-216085295D01*
X361679761Y-216085295D02*
X361679761Y-216228152D01*
X361679761Y-216228152D02*
X361632142Y-216323390D01*
X361632142Y-216323390D02*
X361584523Y-216371009D01*
X361584523Y-216371009D02*
X361489285Y-216418628D01*
X361489285Y-216418628D02*
X361108333Y-216418628D01*
X361965476Y-215894819D02*
X362298809Y-216894819D01*
X362298809Y-216894819D02*
X362632142Y-215894819D01*
X363394047Y-216228152D02*
X363394047Y-216894819D01*
X363155952Y-215847200D02*
X362917857Y-216561485D01*
X362917857Y-216561485D02*
X363536904Y-216561485D01*
X187379761Y-117754819D02*
X187046428Y-117278628D01*
X186808333Y-117754819D02*
X186808333Y-116754819D01*
X186808333Y-116754819D02*
X187189285Y-116754819D01*
X187189285Y-116754819D02*
X187284523Y-116802438D01*
X187284523Y-116802438D02*
X187332142Y-116850057D01*
X187332142Y-116850057D02*
X187379761Y-116945295D01*
X187379761Y-116945295D02*
X187379761Y-117088152D01*
X187379761Y-117088152D02*
X187332142Y-117183390D01*
X187332142Y-117183390D02*
X187284523Y-117231009D01*
X187284523Y-117231009D02*
X187189285Y-117278628D01*
X187189285Y-117278628D02*
X186808333Y-117278628D01*
X187665476Y-116754819D02*
X187998809Y-117754819D01*
X187998809Y-117754819D02*
X188332142Y-116754819D01*
X189141666Y-116754819D02*
X188665476Y-116754819D01*
X188665476Y-116754819D02*
X188617857Y-117231009D01*
X188617857Y-117231009D02*
X188665476Y-117183390D01*
X188665476Y-117183390D02*
X188760714Y-117135771D01*
X188760714Y-117135771D02*
X188998809Y-117135771D01*
X188998809Y-117135771D02*
X189094047Y-117183390D01*
X189094047Y-117183390D02*
X189141666Y-117231009D01*
X189141666Y-117231009D02*
X189189285Y-117326247D01*
X189189285Y-117326247D02*
X189189285Y-117564342D01*
X189189285Y-117564342D02*
X189141666Y-117659580D01*
X189141666Y-117659580D02*
X189094047Y-117707200D01*
X189094047Y-117707200D02*
X188998809Y-117754819D01*
X188998809Y-117754819D02*
X188760714Y-117754819D01*
X188760714Y-117754819D02*
X188665476Y-117707200D01*
X188665476Y-117707200D02*
X188617857Y-117659580D01*
X46004819Y-97956666D02*
X45528628Y-98289999D01*
X46004819Y-98528094D02*
X45004819Y-98528094D01*
X45004819Y-98528094D02*
X45004819Y-98147142D01*
X45004819Y-98147142D02*
X45052438Y-98051904D01*
X45052438Y-98051904D02*
X45100057Y-98004285D01*
X45100057Y-98004285D02*
X45195295Y-97956666D01*
X45195295Y-97956666D02*
X45338152Y-97956666D01*
X45338152Y-97956666D02*
X45433390Y-98004285D01*
X45433390Y-98004285D02*
X45481009Y-98051904D01*
X45481009Y-98051904D02*
X45528628Y-98147142D01*
X45528628Y-98147142D02*
X45528628Y-98528094D01*
X46004819Y-97004285D02*
X46004819Y-97575713D01*
X46004819Y-97289999D02*
X45004819Y-97289999D01*
X45004819Y-97289999D02*
X45147676Y-97385237D01*
X45147676Y-97385237D02*
X45242914Y-97480475D01*
X45242914Y-97480475D02*
X45290533Y-97575713D01*
X105272819Y-88526857D02*
X104796628Y-88860190D01*
X105272819Y-89098285D02*
X104272819Y-89098285D01*
X104272819Y-89098285D02*
X104272819Y-88717333D01*
X104272819Y-88717333D02*
X104320438Y-88622095D01*
X104320438Y-88622095D02*
X104368057Y-88574476D01*
X104368057Y-88574476D02*
X104463295Y-88526857D01*
X104463295Y-88526857D02*
X104606152Y-88526857D01*
X104606152Y-88526857D02*
X104701390Y-88574476D01*
X104701390Y-88574476D02*
X104749009Y-88622095D01*
X104749009Y-88622095D02*
X104796628Y-88717333D01*
X104796628Y-88717333D02*
X104796628Y-89098285D01*
X105272819Y-87574476D02*
X105272819Y-88145904D01*
X105272819Y-87860190D02*
X104272819Y-87860190D01*
X104272819Y-87860190D02*
X104415676Y-87955428D01*
X104415676Y-87955428D02*
X104510914Y-88050666D01*
X104510914Y-88050666D02*
X104558533Y-88145904D01*
X104368057Y-87193523D02*
X104320438Y-87145904D01*
X104320438Y-87145904D02*
X104272819Y-87050666D01*
X104272819Y-87050666D02*
X104272819Y-86812571D01*
X104272819Y-86812571D02*
X104320438Y-86717333D01*
X104320438Y-86717333D02*
X104368057Y-86669714D01*
X104368057Y-86669714D02*
X104463295Y-86622095D01*
X104463295Y-86622095D02*
X104558533Y-86622095D01*
X104558533Y-86622095D02*
X104701390Y-86669714D01*
X104701390Y-86669714D02*
X105272819Y-87241142D01*
X105272819Y-87241142D02*
X105272819Y-86622095D01*
X68953142Y-56334819D02*
X68619809Y-55858628D01*
X68381714Y-56334819D02*
X68381714Y-55334819D01*
X68381714Y-55334819D02*
X68762666Y-55334819D01*
X68762666Y-55334819D02*
X68857904Y-55382438D01*
X68857904Y-55382438D02*
X68905523Y-55430057D01*
X68905523Y-55430057D02*
X68953142Y-55525295D01*
X68953142Y-55525295D02*
X68953142Y-55668152D01*
X68953142Y-55668152D02*
X68905523Y-55763390D01*
X68905523Y-55763390D02*
X68857904Y-55811009D01*
X68857904Y-55811009D02*
X68762666Y-55858628D01*
X68762666Y-55858628D02*
X68381714Y-55858628D01*
X69905523Y-56334819D02*
X69334095Y-56334819D01*
X69619809Y-56334819D02*
X69619809Y-55334819D01*
X69619809Y-55334819D02*
X69524571Y-55477676D01*
X69524571Y-55477676D02*
X69429333Y-55572914D01*
X69429333Y-55572914D02*
X69334095Y-55620533D01*
X70476952Y-55763390D02*
X70381714Y-55715771D01*
X70381714Y-55715771D02*
X70334095Y-55668152D01*
X70334095Y-55668152D02*
X70286476Y-55572914D01*
X70286476Y-55572914D02*
X70286476Y-55525295D01*
X70286476Y-55525295D02*
X70334095Y-55430057D01*
X70334095Y-55430057D02*
X70381714Y-55382438D01*
X70381714Y-55382438D02*
X70476952Y-55334819D01*
X70476952Y-55334819D02*
X70667428Y-55334819D01*
X70667428Y-55334819D02*
X70762666Y-55382438D01*
X70762666Y-55382438D02*
X70810285Y-55430057D01*
X70810285Y-55430057D02*
X70857904Y-55525295D01*
X70857904Y-55525295D02*
X70857904Y-55572914D01*
X70857904Y-55572914D02*
X70810285Y-55668152D01*
X70810285Y-55668152D02*
X70762666Y-55715771D01*
X70762666Y-55715771D02*
X70667428Y-55763390D01*
X70667428Y-55763390D02*
X70476952Y-55763390D01*
X70476952Y-55763390D02*
X70381714Y-55811009D01*
X70381714Y-55811009D02*
X70334095Y-55858628D01*
X70334095Y-55858628D02*
X70286476Y-55953866D01*
X70286476Y-55953866D02*
X70286476Y-56144342D01*
X70286476Y-56144342D02*
X70334095Y-56239580D01*
X70334095Y-56239580D02*
X70381714Y-56287200D01*
X70381714Y-56287200D02*
X70476952Y-56334819D01*
X70476952Y-56334819D02*
X70667428Y-56334819D01*
X70667428Y-56334819D02*
X70762666Y-56287200D01*
X70762666Y-56287200D02*
X70810285Y-56239580D01*
X70810285Y-56239580D02*
X70857904Y-56144342D01*
X70857904Y-56144342D02*
X70857904Y-55953866D01*
X70857904Y-55953866D02*
X70810285Y-55858628D01*
X70810285Y-55858628D02*
X70762666Y-55811009D01*
X70762666Y-55811009D02*
X70667428Y-55763390D01*
X128778095Y-24434819D02*
X128778095Y-23434819D01*
X128778095Y-23911009D02*
X129349523Y-23911009D01*
X129349523Y-24434819D02*
X129349523Y-23434819D01*
X129730476Y-23434819D02*
X130349523Y-23434819D01*
X130349523Y-23434819D02*
X130016190Y-23815771D01*
X130016190Y-23815771D02*
X130159047Y-23815771D01*
X130159047Y-23815771D02*
X130254285Y-23863390D01*
X130254285Y-23863390D02*
X130301904Y-23911009D01*
X130301904Y-23911009D02*
X130349523Y-24006247D01*
X130349523Y-24006247D02*
X130349523Y-24244342D01*
X130349523Y-24244342D02*
X130301904Y-24339580D01*
X130301904Y-24339580D02*
X130254285Y-24387200D01*
X130254285Y-24387200D02*
X130159047Y-24434819D01*
X130159047Y-24434819D02*
X129873333Y-24434819D01*
X129873333Y-24434819D02*
X129778095Y-24387200D01*
X129778095Y-24387200D02*
X129730476Y-24339580D01*
X132704819Y-115990666D02*
X132228628Y-116323999D01*
X132704819Y-116562094D02*
X131704819Y-116562094D01*
X131704819Y-116562094D02*
X131704819Y-116181142D01*
X131704819Y-116181142D02*
X131752438Y-116085904D01*
X131752438Y-116085904D02*
X131800057Y-116038285D01*
X131800057Y-116038285D02*
X131895295Y-115990666D01*
X131895295Y-115990666D02*
X132038152Y-115990666D01*
X132038152Y-115990666D02*
X132133390Y-116038285D01*
X132133390Y-116038285D02*
X132181009Y-116085904D01*
X132181009Y-116085904D02*
X132228628Y-116181142D01*
X132228628Y-116181142D02*
X132228628Y-116562094D01*
X132133390Y-115419237D02*
X132085771Y-115514475D01*
X132085771Y-115514475D02*
X132038152Y-115562094D01*
X132038152Y-115562094D02*
X131942914Y-115609713D01*
X131942914Y-115609713D02*
X131895295Y-115609713D01*
X131895295Y-115609713D02*
X131800057Y-115562094D01*
X131800057Y-115562094D02*
X131752438Y-115514475D01*
X131752438Y-115514475D02*
X131704819Y-115419237D01*
X131704819Y-115419237D02*
X131704819Y-115228761D01*
X131704819Y-115228761D02*
X131752438Y-115133523D01*
X131752438Y-115133523D02*
X131800057Y-115085904D01*
X131800057Y-115085904D02*
X131895295Y-115038285D01*
X131895295Y-115038285D02*
X131942914Y-115038285D01*
X131942914Y-115038285D02*
X132038152Y-115085904D01*
X132038152Y-115085904D02*
X132085771Y-115133523D01*
X132085771Y-115133523D02*
X132133390Y-115228761D01*
X132133390Y-115228761D02*
X132133390Y-115419237D01*
X132133390Y-115419237D02*
X132181009Y-115514475D01*
X132181009Y-115514475D02*
X132228628Y-115562094D01*
X132228628Y-115562094D02*
X132323866Y-115609713D01*
X132323866Y-115609713D02*
X132514342Y-115609713D01*
X132514342Y-115609713D02*
X132609580Y-115562094D01*
X132609580Y-115562094D02*
X132657200Y-115514475D01*
X132657200Y-115514475D02*
X132704819Y-115419237D01*
X132704819Y-115419237D02*
X132704819Y-115228761D01*
X132704819Y-115228761D02*
X132657200Y-115133523D01*
X132657200Y-115133523D02*
X132609580Y-115085904D01*
X132609580Y-115085904D02*
X132514342Y-115038285D01*
X132514342Y-115038285D02*
X132323866Y-115038285D01*
X132323866Y-115038285D02*
X132228628Y-115085904D01*
X132228628Y-115085904D02*
X132181009Y-115133523D01*
X132181009Y-115133523D02*
X132133390Y-115228761D01*
X81564819Y-104226666D02*
X81088628Y-104559999D01*
X81564819Y-104798094D02*
X80564819Y-104798094D01*
X80564819Y-104798094D02*
X80564819Y-104417142D01*
X80564819Y-104417142D02*
X80612438Y-104321904D01*
X80612438Y-104321904D02*
X80660057Y-104274285D01*
X80660057Y-104274285D02*
X80755295Y-104226666D01*
X80755295Y-104226666D02*
X80898152Y-104226666D01*
X80898152Y-104226666D02*
X80993390Y-104274285D01*
X80993390Y-104274285D02*
X81041009Y-104321904D01*
X81041009Y-104321904D02*
X81088628Y-104417142D01*
X81088628Y-104417142D02*
X81088628Y-104798094D01*
X80898152Y-103369523D02*
X81564819Y-103369523D01*
X80517200Y-103607618D02*
X81231485Y-103845713D01*
X81231485Y-103845713D02*
X81231485Y-103226666D01*
X68413333Y-115590819D02*
X68080000Y-115114628D01*
X67841905Y-115590819D02*
X67841905Y-114590819D01*
X67841905Y-114590819D02*
X68222857Y-114590819D01*
X68222857Y-114590819D02*
X68318095Y-114638438D01*
X68318095Y-114638438D02*
X68365714Y-114686057D01*
X68365714Y-114686057D02*
X68413333Y-114781295D01*
X68413333Y-114781295D02*
X68413333Y-114924152D01*
X68413333Y-114924152D02*
X68365714Y-115019390D01*
X68365714Y-115019390D02*
X68318095Y-115067009D01*
X68318095Y-115067009D02*
X68222857Y-115114628D01*
X68222857Y-115114628D02*
X67841905Y-115114628D01*
X68746667Y-114590819D02*
X69365714Y-114590819D01*
X69365714Y-114590819D02*
X69032381Y-114971771D01*
X69032381Y-114971771D02*
X69175238Y-114971771D01*
X69175238Y-114971771D02*
X69270476Y-115019390D01*
X69270476Y-115019390D02*
X69318095Y-115067009D01*
X69318095Y-115067009D02*
X69365714Y-115162247D01*
X69365714Y-115162247D02*
X69365714Y-115400342D01*
X69365714Y-115400342D02*
X69318095Y-115495580D01*
X69318095Y-115495580D02*
X69270476Y-115543200D01*
X69270476Y-115543200D02*
X69175238Y-115590819D01*
X69175238Y-115590819D02*
X68889524Y-115590819D01*
X68889524Y-115590819D02*
X68794286Y-115543200D01*
X68794286Y-115543200D02*
X68746667Y-115495580D01*
X148201142Y-50651580D02*
X148153523Y-50699200D01*
X148153523Y-50699200D02*
X148010666Y-50746819D01*
X148010666Y-50746819D02*
X147915428Y-50746819D01*
X147915428Y-50746819D02*
X147772571Y-50699200D01*
X147772571Y-50699200D02*
X147677333Y-50603961D01*
X147677333Y-50603961D02*
X147629714Y-50508723D01*
X147629714Y-50508723D02*
X147582095Y-50318247D01*
X147582095Y-50318247D02*
X147582095Y-50175390D01*
X147582095Y-50175390D02*
X147629714Y-49984914D01*
X147629714Y-49984914D02*
X147677333Y-49889676D01*
X147677333Y-49889676D02*
X147772571Y-49794438D01*
X147772571Y-49794438D02*
X147915428Y-49746819D01*
X147915428Y-49746819D02*
X148010666Y-49746819D01*
X148010666Y-49746819D02*
X148153523Y-49794438D01*
X148153523Y-49794438D02*
X148201142Y-49842057D01*
X149153523Y-50746819D02*
X148582095Y-50746819D01*
X148867809Y-50746819D02*
X148867809Y-49746819D01*
X148867809Y-49746819D02*
X148772571Y-49889676D01*
X148772571Y-49889676D02*
X148677333Y-49984914D01*
X148677333Y-49984914D02*
X148582095Y-50032533D01*
X149772571Y-49746819D02*
X149867809Y-49746819D01*
X149867809Y-49746819D02*
X149963047Y-49794438D01*
X149963047Y-49794438D02*
X150010666Y-49842057D01*
X150010666Y-49842057D02*
X150058285Y-49937295D01*
X150058285Y-49937295D02*
X150105904Y-50127771D01*
X150105904Y-50127771D02*
X150105904Y-50365866D01*
X150105904Y-50365866D02*
X150058285Y-50556342D01*
X150058285Y-50556342D02*
X150010666Y-50651580D01*
X150010666Y-50651580D02*
X149963047Y-50699200D01*
X149963047Y-50699200D02*
X149867809Y-50746819D01*
X149867809Y-50746819D02*
X149772571Y-50746819D01*
X149772571Y-50746819D02*
X149677333Y-50699200D01*
X149677333Y-50699200D02*
X149629714Y-50651580D01*
X149629714Y-50651580D02*
X149582095Y-50556342D01*
X149582095Y-50556342D02*
X149534476Y-50365866D01*
X149534476Y-50365866D02*
X149534476Y-50127771D01*
X149534476Y-50127771D02*
X149582095Y-49937295D01*
X149582095Y-49937295D02*
X149629714Y-49842057D01*
X149629714Y-49842057D02*
X149677333Y-49794438D01*
X149677333Y-49794438D02*
X149772571Y-49746819D01*
X107209580Y-55732857D02*
X107257200Y-55780476D01*
X107257200Y-55780476D02*
X107304819Y-55923333D01*
X107304819Y-55923333D02*
X107304819Y-56018571D01*
X107304819Y-56018571D02*
X107257200Y-56161428D01*
X107257200Y-56161428D02*
X107161961Y-56256666D01*
X107161961Y-56256666D02*
X107066723Y-56304285D01*
X107066723Y-56304285D02*
X106876247Y-56351904D01*
X106876247Y-56351904D02*
X106733390Y-56351904D01*
X106733390Y-56351904D02*
X106542914Y-56304285D01*
X106542914Y-56304285D02*
X106447676Y-56256666D01*
X106447676Y-56256666D02*
X106352438Y-56161428D01*
X106352438Y-56161428D02*
X106304819Y-56018571D01*
X106304819Y-56018571D02*
X106304819Y-55923333D01*
X106304819Y-55923333D02*
X106352438Y-55780476D01*
X106352438Y-55780476D02*
X106400057Y-55732857D01*
X107304819Y-54780476D02*
X107304819Y-55351904D01*
X107304819Y-55066190D02*
X106304819Y-55066190D01*
X106304819Y-55066190D02*
X106447676Y-55161428D01*
X106447676Y-55161428D02*
X106542914Y-55256666D01*
X106542914Y-55256666D02*
X106590533Y-55351904D01*
X106304819Y-53923333D02*
X106304819Y-54113809D01*
X106304819Y-54113809D02*
X106352438Y-54209047D01*
X106352438Y-54209047D02*
X106400057Y-54256666D01*
X106400057Y-54256666D02*
X106542914Y-54351904D01*
X106542914Y-54351904D02*
X106733390Y-54399523D01*
X106733390Y-54399523D02*
X107114342Y-54399523D01*
X107114342Y-54399523D02*
X107209580Y-54351904D01*
X107209580Y-54351904D02*
X107257200Y-54304285D01*
X107257200Y-54304285D02*
X107304819Y-54209047D01*
X107304819Y-54209047D02*
X107304819Y-54018571D01*
X107304819Y-54018571D02*
X107257200Y-53923333D01*
X107257200Y-53923333D02*
X107209580Y-53875714D01*
X107209580Y-53875714D02*
X107114342Y-53828095D01*
X107114342Y-53828095D02*
X106876247Y-53828095D01*
X106876247Y-53828095D02*
X106781009Y-53875714D01*
X106781009Y-53875714D02*
X106733390Y-53923333D01*
X106733390Y-53923333D02*
X106685771Y-54018571D01*
X106685771Y-54018571D02*
X106685771Y-54209047D01*
X106685771Y-54209047D02*
X106733390Y-54304285D01*
X106733390Y-54304285D02*
X106781009Y-54351904D01*
X106781009Y-54351904D02*
X106876247Y-54399523D01*
X129316819Y-53474857D02*
X128840628Y-53808190D01*
X129316819Y-54046285D02*
X128316819Y-54046285D01*
X128316819Y-54046285D02*
X128316819Y-53665333D01*
X128316819Y-53665333D02*
X128364438Y-53570095D01*
X128364438Y-53570095D02*
X128412057Y-53522476D01*
X128412057Y-53522476D02*
X128507295Y-53474857D01*
X128507295Y-53474857D02*
X128650152Y-53474857D01*
X128650152Y-53474857D02*
X128745390Y-53522476D01*
X128745390Y-53522476D02*
X128793009Y-53570095D01*
X128793009Y-53570095D02*
X128840628Y-53665333D01*
X128840628Y-53665333D02*
X128840628Y-54046285D01*
X129316819Y-52522476D02*
X129316819Y-53093904D01*
X129316819Y-52808190D02*
X128316819Y-52808190D01*
X128316819Y-52808190D02*
X128459676Y-52903428D01*
X128459676Y-52903428D02*
X128554914Y-52998666D01*
X128554914Y-52998666D02*
X128602533Y-53093904D01*
X128316819Y-52189142D02*
X128316819Y-51570095D01*
X128316819Y-51570095D02*
X128697771Y-51903428D01*
X128697771Y-51903428D02*
X128697771Y-51760571D01*
X128697771Y-51760571D02*
X128745390Y-51665333D01*
X128745390Y-51665333D02*
X128793009Y-51617714D01*
X128793009Y-51617714D02*
X128888247Y-51570095D01*
X128888247Y-51570095D02*
X129126342Y-51570095D01*
X129126342Y-51570095D02*
X129221580Y-51617714D01*
X129221580Y-51617714D02*
X129269200Y-51665333D01*
X129269200Y-51665333D02*
X129316819Y-51760571D01*
X129316819Y-51760571D02*
X129316819Y-52046285D01*
X129316819Y-52046285D02*
X129269200Y-52141523D01*
X129269200Y-52141523D02*
X129221580Y-52189142D01*
X187379761Y-49174819D02*
X187046428Y-48698628D01*
X186808333Y-49174819D02*
X186808333Y-48174819D01*
X186808333Y-48174819D02*
X187189285Y-48174819D01*
X187189285Y-48174819D02*
X187284523Y-48222438D01*
X187284523Y-48222438D02*
X187332142Y-48270057D01*
X187332142Y-48270057D02*
X187379761Y-48365295D01*
X187379761Y-48365295D02*
X187379761Y-48508152D01*
X187379761Y-48508152D02*
X187332142Y-48603390D01*
X187332142Y-48603390D02*
X187284523Y-48651009D01*
X187284523Y-48651009D02*
X187189285Y-48698628D01*
X187189285Y-48698628D02*
X186808333Y-48698628D01*
X187665476Y-48174819D02*
X187998809Y-49174819D01*
X187998809Y-49174819D02*
X188332142Y-48174819D01*
X188617857Y-48270057D02*
X188665476Y-48222438D01*
X188665476Y-48222438D02*
X188760714Y-48174819D01*
X188760714Y-48174819D02*
X188998809Y-48174819D01*
X188998809Y-48174819D02*
X189094047Y-48222438D01*
X189094047Y-48222438D02*
X189141666Y-48270057D01*
X189141666Y-48270057D02*
X189189285Y-48365295D01*
X189189285Y-48365295D02*
X189189285Y-48460533D01*
X189189285Y-48460533D02*
X189141666Y-48603390D01*
X189141666Y-48603390D02*
X188570238Y-49174819D01*
X188570238Y-49174819D02*
X189189285Y-49174819D01*
X93813333Y-113400819D02*
X93480000Y-112924628D01*
X93241905Y-113400819D02*
X93241905Y-112400819D01*
X93241905Y-112400819D02*
X93622857Y-112400819D01*
X93622857Y-112400819D02*
X93718095Y-112448438D01*
X93718095Y-112448438D02*
X93765714Y-112496057D01*
X93765714Y-112496057D02*
X93813333Y-112591295D01*
X93813333Y-112591295D02*
X93813333Y-112734152D01*
X93813333Y-112734152D02*
X93765714Y-112829390D01*
X93765714Y-112829390D02*
X93718095Y-112877009D01*
X93718095Y-112877009D02*
X93622857Y-112924628D01*
X93622857Y-112924628D02*
X93241905Y-112924628D01*
X94718095Y-112400819D02*
X94241905Y-112400819D01*
X94241905Y-112400819D02*
X94194286Y-112877009D01*
X94194286Y-112877009D02*
X94241905Y-112829390D01*
X94241905Y-112829390D02*
X94337143Y-112781771D01*
X94337143Y-112781771D02*
X94575238Y-112781771D01*
X94575238Y-112781771D02*
X94670476Y-112829390D01*
X94670476Y-112829390D02*
X94718095Y-112877009D01*
X94718095Y-112877009D02*
X94765714Y-112972247D01*
X94765714Y-112972247D02*
X94765714Y-113210342D01*
X94765714Y-113210342D02*
X94718095Y-113305580D01*
X94718095Y-113305580D02*
X94670476Y-113353200D01*
X94670476Y-113353200D02*
X94575238Y-113400819D01*
X94575238Y-113400819D02*
X94337143Y-113400819D01*
X94337143Y-113400819D02*
X94241905Y-113353200D01*
X94241905Y-113353200D02*
X94194286Y-113305580D01*
X149058333Y-130459819D02*
X148725000Y-129983628D01*
X148486905Y-130459819D02*
X148486905Y-129459819D01*
X148486905Y-129459819D02*
X148867857Y-129459819D01*
X148867857Y-129459819D02*
X148963095Y-129507438D01*
X148963095Y-129507438D02*
X149010714Y-129555057D01*
X149010714Y-129555057D02*
X149058333Y-129650295D01*
X149058333Y-129650295D02*
X149058333Y-129793152D01*
X149058333Y-129793152D02*
X149010714Y-129888390D01*
X149010714Y-129888390D02*
X148963095Y-129936009D01*
X148963095Y-129936009D02*
X148867857Y-129983628D01*
X148867857Y-129983628D02*
X148486905Y-129983628D01*
X149391667Y-129459819D02*
X150058333Y-129459819D01*
X150058333Y-129459819D02*
X149629762Y-130459819D01*
X112338095Y-110052819D02*
X112338095Y-110862342D01*
X112338095Y-110862342D02*
X112385714Y-110957580D01*
X112385714Y-110957580D02*
X112433333Y-111005200D01*
X112433333Y-111005200D02*
X112528571Y-111052819D01*
X112528571Y-111052819D02*
X112719047Y-111052819D01*
X112719047Y-111052819D02*
X112814285Y-111005200D01*
X112814285Y-111005200D02*
X112861904Y-110957580D01*
X112861904Y-110957580D02*
X112909523Y-110862342D01*
X112909523Y-110862342D02*
X112909523Y-110052819D01*
X113909523Y-111052819D02*
X113338095Y-111052819D01*
X113623809Y-111052819D02*
X113623809Y-110052819D01*
X113623809Y-110052819D02*
X113528571Y-110195676D01*
X113528571Y-110195676D02*
X113433333Y-110290914D01*
X113433333Y-110290914D02*
X113338095Y-110338533D01*
X114006333Y-123644819D02*
X113673000Y-123168628D01*
X113434905Y-123644819D02*
X113434905Y-122644819D01*
X113434905Y-122644819D02*
X113815857Y-122644819D01*
X113815857Y-122644819D02*
X113911095Y-122692438D01*
X113911095Y-122692438D02*
X113958714Y-122740057D01*
X113958714Y-122740057D02*
X114006333Y-122835295D01*
X114006333Y-122835295D02*
X114006333Y-122978152D01*
X114006333Y-122978152D02*
X113958714Y-123073390D01*
X113958714Y-123073390D02*
X113911095Y-123121009D01*
X113911095Y-123121009D02*
X113815857Y-123168628D01*
X113815857Y-123168628D02*
X113434905Y-123168628D01*
X114863476Y-122644819D02*
X114673000Y-122644819D01*
X114673000Y-122644819D02*
X114577762Y-122692438D01*
X114577762Y-122692438D02*
X114530143Y-122740057D01*
X114530143Y-122740057D02*
X114434905Y-122882914D01*
X114434905Y-122882914D02*
X114387286Y-123073390D01*
X114387286Y-123073390D02*
X114387286Y-123454342D01*
X114387286Y-123454342D02*
X114434905Y-123549580D01*
X114434905Y-123549580D02*
X114482524Y-123597200D01*
X114482524Y-123597200D02*
X114577762Y-123644819D01*
X114577762Y-123644819D02*
X114768238Y-123644819D01*
X114768238Y-123644819D02*
X114863476Y-123597200D01*
X114863476Y-123597200D02*
X114911095Y-123549580D01*
X114911095Y-123549580D02*
X114958714Y-123454342D01*
X114958714Y-123454342D02*
X114958714Y-123216247D01*
X114958714Y-123216247D02*
X114911095Y-123121009D01*
X114911095Y-123121009D02*
X114863476Y-123073390D01*
X114863476Y-123073390D02*
X114768238Y-123025771D01*
X114768238Y-123025771D02*
X114577762Y-123025771D01*
X114577762Y-123025771D02*
X114482524Y-123073390D01*
X114482524Y-123073390D02*
X114434905Y-123121009D01*
X114434905Y-123121009D02*
X114387286Y-123216247D01*
X58028819Y-70492857D02*
X57552628Y-70826190D01*
X58028819Y-71064285D02*
X57028819Y-71064285D01*
X57028819Y-71064285D02*
X57028819Y-70683333D01*
X57028819Y-70683333D02*
X57076438Y-70588095D01*
X57076438Y-70588095D02*
X57124057Y-70540476D01*
X57124057Y-70540476D02*
X57219295Y-70492857D01*
X57219295Y-70492857D02*
X57362152Y-70492857D01*
X57362152Y-70492857D02*
X57457390Y-70540476D01*
X57457390Y-70540476D02*
X57505009Y-70588095D01*
X57505009Y-70588095D02*
X57552628Y-70683333D01*
X57552628Y-70683333D02*
X57552628Y-71064285D01*
X58028819Y-69540476D02*
X58028819Y-70111904D01*
X58028819Y-69826190D02*
X57028819Y-69826190D01*
X57028819Y-69826190D02*
X57171676Y-69921428D01*
X57171676Y-69921428D02*
X57266914Y-70016666D01*
X57266914Y-70016666D02*
X57314533Y-70111904D01*
X57028819Y-69207142D02*
X57028819Y-68540476D01*
X57028819Y-68540476D02*
X58028819Y-68969047D01*
X71939580Y-104266666D02*
X71987200Y-104314285D01*
X71987200Y-104314285D02*
X72034819Y-104457142D01*
X72034819Y-104457142D02*
X72034819Y-104552380D01*
X72034819Y-104552380D02*
X71987200Y-104695237D01*
X71987200Y-104695237D02*
X71891961Y-104790475D01*
X71891961Y-104790475D02*
X71796723Y-104838094D01*
X71796723Y-104838094D02*
X71606247Y-104885713D01*
X71606247Y-104885713D02*
X71463390Y-104885713D01*
X71463390Y-104885713D02*
X71272914Y-104838094D01*
X71272914Y-104838094D02*
X71177676Y-104790475D01*
X71177676Y-104790475D02*
X71082438Y-104695237D01*
X71082438Y-104695237D02*
X71034819Y-104552380D01*
X71034819Y-104552380D02*
X71034819Y-104457142D01*
X71034819Y-104457142D02*
X71082438Y-104314285D01*
X71082438Y-104314285D02*
X71130057Y-104266666D01*
X71130057Y-103885713D02*
X71082438Y-103838094D01*
X71082438Y-103838094D02*
X71034819Y-103742856D01*
X71034819Y-103742856D02*
X71034819Y-103504761D01*
X71034819Y-103504761D02*
X71082438Y-103409523D01*
X71082438Y-103409523D02*
X71130057Y-103361904D01*
X71130057Y-103361904D02*
X71225295Y-103314285D01*
X71225295Y-103314285D02*
X71320533Y-103314285D01*
X71320533Y-103314285D02*
X71463390Y-103361904D01*
X71463390Y-103361904D02*
X72034819Y-103933332D01*
X72034819Y-103933332D02*
X72034819Y-103314285D01*
X71223095Y-65729819D02*
X71223095Y-66539342D01*
X71223095Y-66539342D02*
X71270714Y-66634580D01*
X71270714Y-66634580D02*
X71318333Y-66682200D01*
X71318333Y-66682200D02*
X71413571Y-66729819D01*
X71413571Y-66729819D02*
X71604047Y-66729819D01*
X71604047Y-66729819D02*
X71699285Y-66682200D01*
X71699285Y-66682200D02*
X71746904Y-66634580D01*
X71746904Y-66634580D02*
X71794523Y-66539342D01*
X71794523Y-66539342D02*
X71794523Y-65729819D01*
X72699285Y-66063152D02*
X72699285Y-66729819D01*
X72461190Y-65682200D02*
X72223095Y-66396485D01*
X72223095Y-66396485D02*
X72842142Y-66396485D01*
X160869333Y-84687580D02*
X160821714Y-84735200D01*
X160821714Y-84735200D02*
X160678857Y-84782819D01*
X160678857Y-84782819D02*
X160583619Y-84782819D01*
X160583619Y-84782819D02*
X160440762Y-84735200D01*
X160440762Y-84735200D02*
X160345524Y-84639961D01*
X160345524Y-84639961D02*
X160297905Y-84544723D01*
X160297905Y-84544723D02*
X160250286Y-84354247D01*
X160250286Y-84354247D02*
X160250286Y-84211390D01*
X160250286Y-84211390D02*
X160297905Y-84020914D01*
X160297905Y-84020914D02*
X160345524Y-83925676D01*
X160345524Y-83925676D02*
X160440762Y-83830438D01*
X160440762Y-83830438D02*
X160583619Y-83782819D01*
X160583619Y-83782819D02*
X160678857Y-83782819D01*
X160678857Y-83782819D02*
X160821714Y-83830438D01*
X160821714Y-83830438D02*
X160869333Y-83878057D01*
X161440762Y-84211390D02*
X161345524Y-84163771D01*
X161345524Y-84163771D02*
X161297905Y-84116152D01*
X161297905Y-84116152D02*
X161250286Y-84020914D01*
X161250286Y-84020914D02*
X161250286Y-83973295D01*
X161250286Y-83973295D02*
X161297905Y-83878057D01*
X161297905Y-83878057D02*
X161345524Y-83830438D01*
X161345524Y-83830438D02*
X161440762Y-83782819D01*
X161440762Y-83782819D02*
X161631238Y-83782819D01*
X161631238Y-83782819D02*
X161726476Y-83830438D01*
X161726476Y-83830438D02*
X161774095Y-83878057D01*
X161774095Y-83878057D02*
X161821714Y-83973295D01*
X161821714Y-83973295D02*
X161821714Y-84020914D01*
X161821714Y-84020914D02*
X161774095Y-84116152D01*
X161774095Y-84116152D02*
X161726476Y-84163771D01*
X161726476Y-84163771D02*
X161631238Y-84211390D01*
X161631238Y-84211390D02*
X161440762Y-84211390D01*
X161440762Y-84211390D02*
X161345524Y-84259009D01*
X161345524Y-84259009D02*
X161297905Y-84306628D01*
X161297905Y-84306628D02*
X161250286Y-84401866D01*
X161250286Y-84401866D02*
X161250286Y-84592342D01*
X161250286Y-84592342D02*
X161297905Y-84687580D01*
X161297905Y-84687580D02*
X161345524Y-84735200D01*
X161345524Y-84735200D02*
X161440762Y-84782819D01*
X161440762Y-84782819D02*
X161631238Y-84782819D01*
X161631238Y-84782819D02*
X161726476Y-84735200D01*
X161726476Y-84735200D02*
X161774095Y-84687580D01*
X161774095Y-84687580D02*
X161821714Y-84592342D01*
X161821714Y-84592342D02*
X161821714Y-84401866D01*
X161821714Y-84401866D02*
X161774095Y-84306628D01*
X161774095Y-84306628D02*
X161726476Y-84259009D01*
X161726476Y-84259009D02*
X161631238Y-84211390D01*
X147153333Y-80929819D02*
X146820000Y-80453628D01*
X146581905Y-80929819D02*
X146581905Y-79929819D01*
X146581905Y-79929819D02*
X146962857Y-79929819D01*
X146962857Y-79929819D02*
X147058095Y-79977438D01*
X147058095Y-79977438D02*
X147105714Y-80025057D01*
X147105714Y-80025057D02*
X147153333Y-80120295D01*
X147153333Y-80120295D02*
X147153333Y-80263152D01*
X147153333Y-80263152D02*
X147105714Y-80358390D01*
X147105714Y-80358390D02*
X147058095Y-80406009D01*
X147058095Y-80406009D02*
X146962857Y-80453628D01*
X146962857Y-80453628D02*
X146581905Y-80453628D01*
X147629524Y-80929819D02*
X147820000Y-80929819D01*
X147820000Y-80929819D02*
X147915238Y-80882200D01*
X147915238Y-80882200D02*
X147962857Y-80834580D01*
X147962857Y-80834580D02*
X148058095Y-80691723D01*
X148058095Y-80691723D02*
X148105714Y-80501247D01*
X148105714Y-80501247D02*
X148105714Y-80120295D01*
X148105714Y-80120295D02*
X148058095Y-80025057D01*
X148058095Y-80025057D02*
X148010476Y-79977438D01*
X148010476Y-79977438D02*
X147915238Y-79929819D01*
X147915238Y-79929819D02*
X147724762Y-79929819D01*
X147724762Y-79929819D02*
X147629524Y-79977438D01*
X147629524Y-79977438D02*
X147581905Y-80025057D01*
X147581905Y-80025057D02*
X147534286Y-80120295D01*
X147534286Y-80120295D02*
X147534286Y-80358390D01*
X147534286Y-80358390D02*
X147581905Y-80453628D01*
X147581905Y-80453628D02*
X147629524Y-80501247D01*
X147629524Y-80501247D02*
X147724762Y-80548866D01*
X147724762Y-80548866D02*
X147915238Y-80548866D01*
X147915238Y-80548866D02*
X148010476Y-80501247D01*
X148010476Y-80501247D02*
X148058095Y-80453628D01*
X148058095Y-80453628D02*
X148105714Y-80358390D01*
X124833142Y-76992819D02*
X124499809Y-76516628D01*
X124261714Y-76992819D02*
X124261714Y-75992819D01*
X124261714Y-75992819D02*
X124642666Y-75992819D01*
X124642666Y-75992819D02*
X124737904Y-76040438D01*
X124737904Y-76040438D02*
X124785523Y-76088057D01*
X124785523Y-76088057D02*
X124833142Y-76183295D01*
X124833142Y-76183295D02*
X124833142Y-76326152D01*
X124833142Y-76326152D02*
X124785523Y-76421390D01*
X124785523Y-76421390D02*
X124737904Y-76469009D01*
X124737904Y-76469009D02*
X124642666Y-76516628D01*
X124642666Y-76516628D02*
X124261714Y-76516628D01*
X125785523Y-76992819D02*
X125214095Y-76992819D01*
X125499809Y-76992819D02*
X125499809Y-75992819D01*
X125499809Y-75992819D02*
X125404571Y-76135676D01*
X125404571Y-76135676D02*
X125309333Y-76230914D01*
X125309333Y-76230914D02*
X125214095Y-76278533D01*
X126642666Y-75992819D02*
X126452190Y-75992819D01*
X126452190Y-75992819D02*
X126356952Y-76040438D01*
X126356952Y-76040438D02*
X126309333Y-76088057D01*
X126309333Y-76088057D02*
X126214095Y-76230914D01*
X126214095Y-76230914D02*
X126166476Y-76421390D01*
X126166476Y-76421390D02*
X126166476Y-76802342D01*
X126166476Y-76802342D02*
X126214095Y-76897580D01*
X126214095Y-76897580D02*
X126261714Y-76945200D01*
X126261714Y-76945200D02*
X126356952Y-76992819D01*
X126356952Y-76992819D02*
X126547428Y-76992819D01*
X126547428Y-76992819D02*
X126642666Y-76945200D01*
X126642666Y-76945200D02*
X126690285Y-76897580D01*
X126690285Y-76897580D02*
X126737904Y-76802342D01*
X126737904Y-76802342D02*
X126737904Y-76564247D01*
X126737904Y-76564247D02*
X126690285Y-76469009D01*
X126690285Y-76469009D02*
X126642666Y-76421390D01*
X126642666Y-76421390D02*
X126547428Y-76373771D01*
X126547428Y-76373771D02*
X126356952Y-76373771D01*
X126356952Y-76373771D02*
X126261714Y-76421390D01*
X126261714Y-76421390D02*
X126214095Y-76469009D01*
X126214095Y-76469009D02*
X126166476Y-76564247D01*
X68864819Y-47378857D02*
X68388628Y-47712190D01*
X68864819Y-47950285D02*
X67864819Y-47950285D01*
X67864819Y-47950285D02*
X67864819Y-47569333D01*
X67864819Y-47569333D02*
X67912438Y-47474095D01*
X67912438Y-47474095D02*
X67960057Y-47426476D01*
X67960057Y-47426476D02*
X68055295Y-47378857D01*
X68055295Y-47378857D02*
X68198152Y-47378857D01*
X68198152Y-47378857D02*
X68293390Y-47426476D01*
X68293390Y-47426476D02*
X68341009Y-47474095D01*
X68341009Y-47474095D02*
X68388628Y-47569333D01*
X68388628Y-47569333D02*
X68388628Y-47950285D01*
X68864819Y-46426476D02*
X68864819Y-46997904D01*
X68864819Y-46712190D02*
X67864819Y-46712190D01*
X67864819Y-46712190D02*
X68007676Y-46807428D01*
X68007676Y-46807428D02*
X68102914Y-46902666D01*
X68102914Y-46902666D02*
X68150533Y-46997904D01*
X68864819Y-45950285D02*
X68864819Y-45759809D01*
X68864819Y-45759809D02*
X68817200Y-45664571D01*
X68817200Y-45664571D02*
X68769580Y-45616952D01*
X68769580Y-45616952D02*
X68626723Y-45521714D01*
X68626723Y-45521714D02*
X68436247Y-45474095D01*
X68436247Y-45474095D02*
X68055295Y-45474095D01*
X68055295Y-45474095D02*
X67960057Y-45521714D01*
X67960057Y-45521714D02*
X67912438Y-45569333D01*
X67912438Y-45569333D02*
X67864819Y-45664571D01*
X67864819Y-45664571D02*
X67864819Y-45855047D01*
X67864819Y-45855047D02*
X67912438Y-45950285D01*
X67912438Y-45950285D02*
X67960057Y-45997904D01*
X67960057Y-45997904D02*
X68055295Y-46045523D01*
X68055295Y-46045523D02*
X68293390Y-46045523D01*
X68293390Y-46045523D02*
X68388628Y-45997904D01*
X68388628Y-45997904D02*
X68436247Y-45950285D01*
X68436247Y-45950285D02*
X68483866Y-45855047D01*
X68483866Y-45855047D02*
X68483866Y-45664571D01*
X68483866Y-45664571D02*
X68436247Y-45569333D01*
X68436247Y-45569333D02*
X68388628Y-45521714D01*
X68388628Y-45521714D02*
X68293390Y-45474095D01*
X163675333Y-107241580D02*
X163627714Y-107289200D01*
X163627714Y-107289200D02*
X163484857Y-107336819D01*
X163484857Y-107336819D02*
X163389619Y-107336819D01*
X163389619Y-107336819D02*
X163246762Y-107289200D01*
X163246762Y-107289200D02*
X163151524Y-107193961D01*
X163151524Y-107193961D02*
X163103905Y-107098723D01*
X163103905Y-107098723D02*
X163056286Y-106908247D01*
X163056286Y-106908247D02*
X163056286Y-106765390D01*
X163056286Y-106765390D02*
X163103905Y-106574914D01*
X163103905Y-106574914D02*
X163151524Y-106479676D01*
X163151524Y-106479676D02*
X163246762Y-106384438D01*
X163246762Y-106384438D02*
X163389619Y-106336819D01*
X163389619Y-106336819D02*
X163484857Y-106336819D01*
X163484857Y-106336819D02*
X163627714Y-106384438D01*
X163627714Y-106384438D02*
X163675333Y-106432057D01*
X164532476Y-106336819D02*
X164342000Y-106336819D01*
X164342000Y-106336819D02*
X164246762Y-106384438D01*
X164246762Y-106384438D02*
X164199143Y-106432057D01*
X164199143Y-106432057D02*
X164103905Y-106574914D01*
X164103905Y-106574914D02*
X164056286Y-106765390D01*
X164056286Y-106765390D02*
X164056286Y-107146342D01*
X164056286Y-107146342D02*
X164103905Y-107241580D01*
X164103905Y-107241580D02*
X164151524Y-107289200D01*
X164151524Y-107289200D02*
X164246762Y-107336819D01*
X164246762Y-107336819D02*
X164437238Y-107336819D01*
X164437238Y-107336819D02*
X164532476Y-107289200D01*
X164532476Y-107289200D02*
X164580095Y-107241580D01*
X164580095Y-107241580D02*
X164627714Y-107146342D01*
X164627714Y-107146342D02*
X164627714Y-106908247D01*
X164627714Y-106908247D02*
X164580095Y-106813009D01*
X164580095Y-106813009D02*
X164532476Y-106765390D01*
X164532476Y-106765390D02*
X164437238Y-106717771D01*
X164437238Y-106717771D02*
X164246762Y-106717771D01*
X164246762Y-106717771D02*
X164151524Y-106765390D01*
X164151524Y-106765390D02*
X164103905Y-106813009D01*
X164103905Y-106813009D02*
X164056286Y-106908247D01*
X37338095Y-24434819D02*
X37338095Y-23434819D01*
X37338095Y-23911009D02*
X37909523Y-23911009D01*
X37909523Y-24434819D02*
X37909523Y-23434819D01*
X38909523Y-24434819D02*
X38338095Y-24434819D01*
X38623809Y-24434819D02*
X38623809Y-23434819D01*
X38623809Y-23434819D02*
X38528571Y-23577676D01*
X38528571Y-23577676D02*
X38433333Y-23672914D01*
X38433333Y-23672914D02*
X38338095Y-23720533D01*
X77589142Y-79872819D02*
X77255809Y-79396628D01*
X77017714Y-79872819D02*
X77017714Y-78872819D01*
X77017714Y-78872819D02*
X77398666Y-78872819D01*
X77398666Y-78872819D02*
X77493904Y-78920438D01*
X77493904Y-78920438D02*
X77541523Y-78968057D01*
X77541523Y-78968057D02*
X77589142Y-79063295D01*
X77589142Y-79063295D02*
X77589142Y-79206152D01*
X77589142Y-79206152D02*
X77541523Y-79301390D01*
X77541523Y-79301390D02*
X77493904Y-79349009D01*
X77493904Y-79349009D02*
X77398666Y-79396628D01*
X77398666Y-79396628D02*
X77017714Y-79396628D01*
X77970095Y-78968057D02*
X78017714Y-78920438D01*
X78017714Y-78920438D02*
X78112952Y-78872819D01*
X78112952Y-78872819D02*
X78351047Y-78872819D01*
X78351047Y-78872819D02*
X78446285Y-78920438D01*
X78446285Y-78920438D02*
X78493904Y-78968057D01*
X78493904Y-78968057D02*
X78541523Y-79063295D01*
X78541523Y-79063295D02*
X78541523Y-79158533D01*
X78541523Y-79158533D02*
X78493904Y-79301390D01*
X78493904Y-79301390D02*
X77922476Y-79872819D01*
X77922476Y-79872819D02*
X78541523Y-79872819D01*
X78922476Y-78968057D02*
X78970095Y-78920438D01*
X78970095Y-78920438D02*
X79065333Y-78872819D01*
X79065333Y-78872819D02*
X79303428Y-78872819D01*
X79303428Y-78872819D02*
X79398666Y-78920438D01*
X79398666Y-78920438D02*
X79446285Y-78968057D01*
X79446285Y-78968057D02*
X79493904Y-79063295D01*
X79493904Y-79063295D02*
X79493904Y-79158533D01*
X79493904Y-79158533D02*
X79446285Y-79301390D01*
X79446285Y-79301390D02*
X78874857Y-79872819D01*
X78874857Y-79872819D02*
X79493904Y-79872819D01*
X37338095Y-124510819D02*
X37338095Y-123510819D01*
X37338095Y-123987009D02*
X37909523Y-123987009D01*
X37909523Y-124510819D02*
X37909523Y-123510819D01*
X38338095Y-123606057D02*
X38385714Y-123558438D01*
X38385714Y-123558438D02*
X38480952Y-123510819D01*
X38480952Y-123510819D02*
X38719047Y-123510819D01*
X38719047Y-123510819D02*
X38814285Y-123558438D01*
X38814285Y-123558438D02*
X38861904Y-123606057D01*
X38861904Y-123606057D02*
X38909523Y-123701295D01*
X38909523Y-123701295D02*
X38909523Y-123796533D01*
X38909523Y-123796533D02*
X38861904Y-123939390D01*
X38861904Y-123939390D02*
X38290476Y-124510819D01*
X38290476Y-124510819D02*
X38909523Y-124510819D01*
X68953142Y-59085580D02*
X68905523Y-59133200D01*
X68905523Y-59133200D02*
X68762666Y-59180819D01*
X68762666Y-59180819D02*
X68667428Y-59180819D01*
X68667428Y-59180819D02*
X68524571Y-59133200D01*
X68524571Y-59133200D02*
X68429333Y-59037961D01*
X68429333Y-59037961D02*
X68381714Y-58942723D01*
X68381714Y-58942723D02*
X68334095Y-58752247D01*
X68334095Y-58752247D02*
X68334095Y-58609390D01*
X68334095Y-58609390D02*
X68381714Y-58418914D01*
X68381714Y-58418914D02*
X68429333Y-58323676D01*
X68429333Y-58323676D02*
X68524571Y-58228438D01*
X68524571Y-58228438D02*
X68667428Y-58180819D01*
X68667428Y-58180819D02*
X68762666Y-58180819D01*
X68762666Y-58180819D02*
X68905523Y-58228438D01*
X68905523Y-58228438D02*
X68953142Y-58276057D01*
X69905523Y-59180819D02*
X69334095Y-59180819D01*
X69619809Y-59180819D02*
X69619809Y-58180819D01*
X69619809Y-58180819D02*
X69524571Y-58323676D01*
X69524571Y-58323676D02*
X69429333Y-58418914D01*
X69429333Y-58418914D02*
X69334095Y-58466533D01*
X70762666Y-58514152D02*
X70762666Y-59180819D01*
X70524571Y-58133200D02*
X70286476Y-58847485D01*
X70286476Y-58847485D02*
X70905523Y-58847485D01*
X120755580Y-54490857D02*
X120803200Y-54538476D01*
X120803200Y-54538476D02*
X120850819Y-54681333D01*
X120850819Y-54681333D02*
X120850819Y-54776571D01*
X120850819Y-54776571D02*
X120803200Y-54919428D01*
X120803200Y-54919428D02*
X120707961Y-55014666D01*
X120707961Y-55014666D02*
X120612723Y-55062285D01*
X120612723Y-55062285D02*
X120422247Y-55109904D01*
X120422247Y-55109904D02*
X120279390Y-55109904D01*
X120279390Y-55109904D02*
X120088914Y-55062285D01*
X120088914Y-55062285D02*
X119993676Y-55014666D01*
X119993676Y-55014666D02*
X119898438Y-54919428D01*
X119898438Y-54919428D02*
X119850819Y-54776571D01*
X119850819Y-54776571D02*
X119850819Y-54681333D01*
X119850819Y-54681333D02*
X119898438Y-54538476D01*
X119898438Y-54538476D02*
X119946057Y-54490857D01*
X120850819Y-53538476D02*
X120850819Y-54109904D01*
X120850819Y-53824190D02*
X119850819Y-53824190D01*
X119850819Y-53824190D02*
X119993676Y-53919428D01*
X119993676Y-53919428D02*
X120088914Y-54014666D01*
X120088914Y-54014666D02*
X120136533Y-54109904D01*
X120850819Y-52586095D02*
X120850819Y-53157523D01*
X120850819Y-52871809D02*
X119850819Y-52871809D01*
X119850819Y-52871809D02*
X119993676Y-52967047D01*
X119993676Y-52967047D02*
X120088914Y-53062285D01*
X120088914Y-53062285D02*
X120136533Y-53157523D01*
X71285580Y-46362857D02*
X71333200Y-46410476D01*
X71333200Y-46410476D02*
X71380819Y-46553333D01*
X71380819Y-46553333D02*
X71380819Y-46648571D01*
X71380819Y-46648571D02*
X71333200Y-46791428D01*
X71333200Y-46791428D02*
X71237961Y-46886666D01*
X71237961Y-46886666D02*
X71142723Y-46934285D01*
X71142723Y-46934285D02*
X70952247Y-46981904D01*
X70952247Y-46981904D02*
X70809390Y-46981904D01*
X70809390Y-46981904D02*
X70618914Y-46934285D01*
X70618914Y-46934285D02*
X70523676Y-46886666D01*
X70523676Y-46886666D02*
X70428438Y-46791428D01*
X70428438Y-46791428D02*
X70380819Y-46648571D01*
X70380819Y-46648571D02*
X70380819Y-46553333D01*
X70380819Y-46553333D02*
X70428438Y-46410476D01*
X70428438Y-46410476D02*
X70476057Y-46362857D01*
X71380819Y-45410476D02*
X71380819Y-45981904D01*
X71380819Y-45696190D02*
X70380819Y-45696190D01*
X70380819Y-45696190D02*
X70523676Y-45791428D01*
X70523676Y-45791428D02*
X70618914Y-45886666D01*
X70618914Y-45886666D02*
X70666533Y-45981904D01*
X70380819Y-44505714D02*
X70380819Y-44981904D01*
X70380819Y-44981904D02*
X70857009Y-45029523D01*
X70857009Y-45029523D02*
X70809390Y-44981904D01*
X70809390Y-44981904D02*
X70761771Y-44886666D01*
X70761771Y-44886666D02*
X70761771Y-44648571D01*
X70761771Y-44648571D02*
X70809390Y-44553333D01*
X70809390Y-44553333D02*
X70857009Y-44505714D01*
X70857009Y-44505714D02*
X70952247Y-44458095D01*
X70952247Y-44458095D02*
X71190342Y-44458095D01*
X71190342Y-44458095D02*
X71285580Y-44505714D01*
X71285580Y-44505714D02*
X71333200Y-44553333D01*
X71333200Y-44553333D02*
X71380819Y-44648571D01*
X71380819Y-44648571D02*
X71380819Y-44886666D01*
X71380819Y-44886666D02*
X71333200Y-44981904D01*
X71333200Y-44981904D02*
X71285580Y-45029523D01*
X147153333Y-111273580D02*
X147105714Y-111321200D01*
X147105714Y-111321200D02*
X146962857Y-111368819D01*
X146962857Y-111368819D02*
X146867619Y-111368819D01*
X146867619Y-111368819D02*
X146724762Y-111321200D01*
X146724762Y-111321200D02*
X146629524Y-111225961D01*
X146629524Y-111225961D02*
X146581905Y-111130723D01*
X146581905Y-111130723D02*
X146534286Y-110940247D01*
X146534286Y-110940247D02*
X146534286Y-110797390D01*
X146534286Y-110797390D02*
X146581905Y-110606914D01*
X146581905Y-110606914D02*
X146629524Y-110511676D01*
X146629524Y-110511676D02*
X146724762Y-110416438D01*
X146724762Y-110416438D02*
X146867619Y-110368819D01*
X146867619Y-110368819D02*
X146962857Y-110368819D01*
X146962857Y-110368819D02*
X147105714Y-110416438D01*
X147105714Y-110416438D02*
X147153333Y-110464057D01*
X147486667Y-110368819D02*
X148153333Y-110368819D01*
X148153333Y-110368819D02*
X147724762Y-111368819D01*
X129229095Y-58363819D02*
X129229095Y-59173342D01*
X129229095Y-59173342D02*
X129276714Y-59268580D01*
X129276714Y-59268580D02*
X129324333Y-59316200D01*
X129324333Y-59316200D02*
X129419571Y-59363819D01*
X129419571Y-59363819D02*
X129610047Y-59363819D01*
X129610047Y-59363819D02*
X129705285Y-59316200D01*
X129705285Y-59316200D02*
X129752904Y-59268580D01*
X129752904Y-59268580D02*
X129800523Y-59173342D01*
X129800523Y-59173342D02*
X129800523Y-58363819D01*
X130181476Y-58363819D02*
X130800523Y-58363819D01*
X130800523Y-58363819D02*
X130467190Y-58744771D01*
X130467190Y-58744771D02*
X130610047Y-58744771D01*
X130610047Y-58744771D02*
X130705285Y-58792390D01*
X130705285Y-58792390D02*
X130752904Y-58840009D01*
X130752904Y-58840009D02*
X130800523Y-58935247D01*
X130800523Y-58935247D02*
X130800523Y-59173342D01*
X130800523Y-59173342D02*
X130752904Y-59268580D01*
X130752904Y-59268580D02*
X130705285Y-59316200D01*
X130705285Y-59316200D02*
X130610047Y-59363819D01*
X130610047Y-59363819D02*
X130324333Y-59363819D01*
X130324333Y-59363819D02*
X130229095Y-59316200D01*
X130229095Y-59316200D02*
X130181476Y-59268580D01*
X187379761Y-26314819D02*
X187046428Y-25838628D01*
X186808333Y-26314819D02*
X186808333Y-25314819D01*
X186808333Y-25314819D02*
X187189285Y-25314819D01*
X187189285Y-25314819D02*
X187284523Y-25362438D01*
X187284523Y-25362438D02*
X187332142Y-25410057D01*
X187332142Y-25410057D02*
X187379761Y-25505295D01*
X187379761Y-25505295D02*
X187379761Y-25648152D01*
X187379761Y-25648152D02*
X187332142Y-25743390D01*
X187332142Y-25743390D02*
X187284523Y-25791009D01*
X187284523Y-25791009D02*
X187189285Y-25838628D01*
X187189285Y-25838628D02*
X186808333Y-25838628D01*
X187665476Y-25314819D02*
X187998809Y-26314819D01*
X187998809Y-26314819D02*
X188332142Y-25314819D01*
X189189285Y-26314819D02*
X188617857Y-26314819D01*
X188903571Y-26314819D02*
X188903571Y-25314819D01*
X188903571Y-25314819D02*
X188808333Y-25457676D01*
X188808333Y-25457676D02*
X188713095Y-25552914D01*
X188713095Y-25552914D02*
X188617857Y-25600533D01*
X70543333Y-128470819D02*
X70210000Y-127994628D01*
X69971905Y-128470819D02*
X69971905Y-127470819D01*
X69971905Y-127470819D02*
X70352857Y-127470819D01*
X70352857Y-127470819D02*
X70448095Y-127518438D01*
X70448095Y-127518438D02*
X70495714Y-127566057D01*
X70495714Y-127566057D02*
X70543333Y-127661295D01*
X70543333Y-127661295D02*
X70543333Y-127804152D01*
X70543333Y-127804152D02*
X70495714Y-127899390D01*
X70495714Y-127899390D02*
X70448095Y-127947009D01*
X70448095Y-127947009D02*
X70352857Y-127994628D01*
X70352857Y-127994628D02*
X69971905Y-127994628D01*
X70924286Y-127566057D02*
X70971905Y-127518438D01*
X70971905Y-127518438D02*
X71067143Y-127470819D01*
X71067143Y-127470819D02*
X71305238Y-127470819D01*
X71305238Y-127470819D02*
X71400476Y-127518438D01*
X71400476Y-127518438D02*
X71448095Y-127566057D01*
X71448095Y-127566057D02*
X71495714Y-127661295D01*
X71495714Y-127661295D02*
X71495714Y-127756533D01*
X71495714Y-127756533D02*
X71448095Y-127899390D01*
X71448095Y-127899390D02*
X70876667Y-128470819D01*
X70876667Y-128470819D02*
X71495714Y-128470819D01*
X116197142Y-68356819D02*
X115863809Y-67880628D01*
X115625714Y-68356819D02*
X115625714Y-67356819D01*
X115625714Y-67356819D02*
X116006666Y-67356819D01*
X116006666Y-67356819D02*
X116101904Y-67404438D01*
X116101904Y-67404438D02*
X116149523Y-67452057D01*
X116149523Y-67452057D02*
X116197142Y-67547295D01*
X116197142Y-67547295D02*
X116197142Y-67690152D01*
X116197142Y-67690152D02*
X116149523Y-67785390D01*
X116149523Y-67785390D02*
X116101904Y-67833009D01*
X116101904Y-67833009D02*
X116006666Y-67880628D01*
X116006666Y-67880628D02*
X115625714Y-67880628D01*
X117149523Y-68356819D02*
X116578095Y-68356819D01*
X116863809Y-68356819D02*
X116863809Y-67356819D01*
X116863809Y-67356819D02*
X116768571Y-67499676D01*
X116768571Y-67499676D02*
X116673333Y-67594914D01*
X116673333Y-67594914D02*
X116578095Y-67642533D01*
X118006666Y-67690152D02*
X118006666Y-68356819D01*
X117768571Y-67309200D02*
X117530476Y-68023485D01*
X117530476Y-68023485D02*
X118149523Y-68023485D01*
X100838095Y-24434819D02*
X100838095Y-23434819D01*
X100838095Y-23911009D02*
X101409523Y-23911009D01*
X101409523Y-24434819D02*
X101409523Y-23434819D01*
X102314285Y-23768152D02*
X102314285Y-24434819D01*
X102076190Y-23387200D02*
X101838095Y-24101485D01*
X101838095Y-24101485D02*
X102457142Y-24101485D01*
X112384819Y-85986857D02*
X111908628Y-86320190D01*
X112384819Y-86558285D02*
X111384819Y-86558285D01*
X111384819Y-86558285D02*
X111384819Y-86177333D01*
X111384819Y-86177333D02*
X111432438Y-86082095D01*
X111432438Y-86082095D02*
X111480057Y-86034476D01*
X111480057Y-86034476D02*
X111575295Y-85986857D01*
X111575295Y-85986857D02*
X111718152Y-85986857D01*
X111718152Y-85986857D02*
X111813390Y-86034476D01*
X111813390Y-86034476D02*
X111861009Y-86082095D01*
X111861009Y-86082095D02*
X111908628Y-86177333D01*
X111908628Y-86177333D02*
X111908628Y-86558285D01*
X112384819Y-85034476D02*
X112384819Y-85605904D01*
X112384819Y-85320190D02*
X111384819Y-85320190D01*
X111384819Y-85320190D02*
X111527676Y-85415428D01*
X111527676Y-85415428D02*
X111622914Y-85510666D01*
X111622914Y-85510666D02*
X111670533Y-85605904D01*
X111384819Y-84415428D02*
X111384819Y-84320190D01*
X111384819Y-84320190D02*
X111432438Y-84224952D01*
X111432438Y-84224952D02*
X111480057Y-84177333D01*
X111480057Y-84177333D02*
X111575295Y-84129714D01*
X111575295Y-84129714D02*
X111765771Y-84082095D01*
X111765771Y-84082095D02*
X112003866Y-84082095D01*
X112003866Y-84082095D02*
X112194342Y-84129714D01*
X112194342Y-84129714D02*
X112289580Y-84177333D01*
X112289580Y-84177333D02*
X112337200Y-84224952D01*
X112337200Y-84224952D02*
X112384819Y-84320190D01*
X112384819Y-84320190D02*
X112384819Y-84415428D01*
X112384819Y-84415428D02*
X112337200Y-84510666D01*
X112337200Y-84510666D02*
X112289580Y-84558285D01*
X112289580Y-84558285D02*
X112194342Y-84605904D01*
X112194342Y-84605904D02*
X112003866Y-84653523D01*
X112003866Y-84653523D02*
X111765771Y-84653523D01*
X111765771Y-84653523D02*
X111575295Y-84605904D01*
X111575295Y-84605904D02*
X111480057Y-84558285D01*
X111480057Y-84558285D02*
X111432438Y-84510666D01*
X111432438Y-84510666D02*
X111384819Y-84415428D01*
X114927142Y-37114819D02*
X114593809Y-36638628D01*
X114355714Y-37114819D02*
X114355714Y-36114819D01*
X114355714Y-36114819D02*
X114736666Y-36114819D01*
X114736666Y-36114819D02*
X114831904Y-36162438D01*
X114831904Y-36162438D02*
X114879523Y-36210057D01*
X114879523Y-36210057D02*
X114927142Y-36305295D01*
X114927142Y-36305295D02*
X114927142Y-36448152D01*
X114927142Y-36448152D02*
X114879523Y-36543390D01*
X114879523Y-36543390D02*
X114831904Y-36591009D01*
X114831904Y-36591009D02*
X114736666Y-36638628D01*
X114736666Y-36638628D02*
X114355714Y-36638628D01*
X115308095Y-36210057D02*
X115355714Y-36162438D01*
X115355714Y-36162438D02*
X115450952Y-36114819D01*
X115450952Y-36114819D02*
X115689047Y-36114819D01*
X115689047Y-36114819D02*
X115784285Y-36162438D01*
X115784285Y-36162438D02*
X115831904Y-36210057D01*
X115831904Y-36210057D02*
X115879523Y-36305295D01*
X115879523Y-36305295D02*
X115879523Y-36400533D01*
X115879523Y-36400533D02*
X115831904Y-36543390D01*
X115831904Y-36543390D02*
X115260476Y-37114819D01*
X115260476Y-37114819D02*
X115879523Y-37114819D01*
X116831904Y-37114819D02*
X116260476Y-37114819D01*
X116546190Y-37114819D02*
X116546190Y-36114819D01*
X116546190Y-36114819D02*
X116450952Y-36257676D01*
X116450952Y-36257676D02*
X116355714Y-36352914D01*
X116355714Y-36352914D02*
X116260476Y-36400533D01*
X67905333Y-128931580D02*
X67857714Y-128979200D01*
X67857714Y-128979200D02*
X67714857Y-129026819D01*
X67714857Y-129026819D02*
X67619619Y-129026819D01*
X67619619Y-129026819D02*
X67476762Y-128979200D01*
X67476762Y-128979200D02*
X67381524Y-128883961D01*
X67381524Y-128883961D02*
X67333905Y-128788723D01*
X67333905Y-128788723D02*
X67286286Y-128598247D01*
X67286286Y-128598247D02*
X67286286Y-128455390D01*
X67286286Y-128455390D02*
X67333905Y-128264914D01*
X67333905Y-128264914D02*
X67381524Y-128169676D01*
X67381524Y-128169676D02*
X67476762Y-128074438D01*
X67476762Y-128074438D02*
X67619619Y-128026819D01*
X67619619Y-128026819D02*
X67714857Y-128026819D01*
X67714857Y-128026819D02*
X67857714Y-128074438D01*
X67857714Y-128074438D02*
X67905333Y-128122057D01*
X68857714Y-129026819D02*
X68286286Y-129026819D01*
X68572000Y-129026819D02*
X68572000Y-128026819D01*
X68572000Y-128026819D02*
X68476762Y-128169676D01*
X68476762Y-128169676D02*
X68381524Y-128264914D01*
X68381524Y-128264914D02*
X68286286Y-128312533D01*
X40029761Y-66034819D02*
X39696428Y-65558628D01*
X39458333Y-66034819D02*
X39458333Y-65034819D01*
X39458333Y-65034819D02*
X39839285Y-65034819D01*
X39839285Y-65034819D02*
X39934523Y-65082438D01*
X39934523Y-65082438D02*
X39982142Y-65130057D01*
X39982142Y-65130057D02*
X40029761Y-65225295D01*
X40029761Y-65225295D02*
X40029761Y-65368152D01*
X40029761Y-65368152D02*
X39982142Y-65463390D01*
X39982142Y-65463390D02*
X39934523Y-65511009D01*
X39934523Y-65511009D02*
X39839285Y-65558628D01*
X39839285Y-65558628D02*
X39458333Y-65558628D01*
X40315476Y-65034819D02*
X40648809Y-66034819D01*
X40648809Y-66034819D02*
X40982142Y-65034819D01*
X41744047Y-65034819D02*
X41553571Y-65034819D01*
X41553571Y-65034819D02*
X41458333Y-65082438D01*
X41458333Y-65082438D02*
X41410714Y-65130057D01*
X41410714Y-65130057D02*
X41315476Y-65272914D01*
X41315476Y-65272914D02*
X41267857Y-65463390D01*
X41267857Y-65463390D02*
X41267857Y-65844342D01*
X41267857Y-65844342D02*
X41315476Y-65939580D01*
X41315476Y-65939580D02*
X41363095Y-65987200D01*
X41363095Y-65987200D02*
X41458333Y-66034819D01*
X41458333Y-66034819D02*
X41648809Y-66034819D01*
X41648809Y-66034819D02*
X41744047Y-65987200D01*
X41744047Y-65987200D02*
X41791666Y-65939580D01*
X41791666Y-65939580D02*
X41839285Y-65844342D01*
X41839285Y-65844342D02*
X41839285Y-65606247D01*
X41839285Y-65606247D02*
X41791666Y-65511009D01*
X41791666Y-65511009D02*
X41744047Y-65463390D01*
X41744047Y-65463390D02*
X41648809Y-65415771D01*
X41648809Y-65415771D02*
X41458333Y-65415771D01*
X41458333Y-65415771D02*
X41363095Y-65463390D01*
X41363095Y-65463390D02*
X41315476Y-65511009D01*
X41315476Y-65511009D02*
X41267857Y-65606247D01*
X125673095Y-81731819D02*
X125673095Y-82541342D01*
X125673095Y-82541342D02*
X125720714Y-82636580D01*
X125720714Y-82636580D02*
X125768333Y-82684200D01*
X125768333Y-82684200D02*
X125863571Y-82731819D01*
X125863571Y-82731819D02*
X126054047Y-82731819D01*
X126054047Y-82731819D02*
X126149285Y-82684200D01*
X126149285Y-82684200D02*
X126196904Y-82636580D01*
X126196904Y-82636580D02*
X126244523Y-82541342D01*
X126244523Y-82541342D02*
X126244523Y-81731819D01*
X126673095Y-81827057D02*
X126720714Y-81779438D01*
X126720714Y-81779438D02*
X126815952Y-81731819D01*
X126815952Y-81731819D02*
X127054047Y-81731819D01*
X127054047Y-81731819D02*
X127149285Y-81779438D01*
X127149285Y-81779438D02*
X127196904Y-81827057D01*
X127196904Y-81827057D02*
X127244523Y-81922295D01*
X127244523Y-81922295D02*
X127244523Y-82017533D01*
X127244523Y-82017533D02*
X127196904Y-82160390D01*
X127196904Y-82160390D02*
X126625476Y-82731819D01*
X126625476Y-82731819D02*
X127244523Y-82731819D01*
X164965142Y-39161580D02*
X164917523Y-39209200D01*
X164917523Y-39209200D02*
X164774666Y-39256819D01*
X164774666Y-39256819D02*
X164679428Y-39256819D01*
X164679428Y-39256819D02*
X164536571Y-39209200D01*
X164536571Y-39209200D02*
X164441333Y-39113961D01*
X164441333Y-39113961D02*
X164393714Y-39018723D01*
X164393714Y-39018723D02*
X164346095Y-38828247D01*
X164346095Y-38828247D02*
X164346095Y-38685390D01*
X164346095Y-38685390D02*
X164393714Y-38494914D01*
X164393714Y-38494914D02*
X164441333Y-38399676D01*
X164441333Y-38399676D02*
X164536571Y-38304438D01*
X164536571Y-38304438D02*
X164679428Y-38256819D01*
X164679428Y-38256819D02*
X164774666Y-38256819D01*
X164774666Y-38256819D02*
X164917523Y-38304438D01*
X164917523Y-38304438D02*
X164965142Y-38352057D01*
X165917523Y-39256819D02*
X165346095Y-39256819D01*
X165631809Y-39256819D02*
X165631809Y-38256819D01*
X165631809Y-38256819D02*
X165536571Y-38399676D01*
X165536571Y-38399676D02*
X165441333Y-38494914D01*
X165441333Y-38494914D02*
X165346095Y-38542533D01*
X166298476Y-38352057D02*
X166346095Y-38304438D01*
X166346095Y-38304438D02*
X166441333Y-38256819D01*
X166441333Y-38256819D02*
X166679428Y-38256819D01*
X166679428Y-38256819D02*
X166774666Y-38304438D01*
X166774666Y-38304438D02*
X166822285Y-38352057D01*
X166822285Y-38352057D02*
X166869904Y-38447295D01*
X166869904Y-38447295D02*
X166869904Y-38542533D01*
X166869904Y-38542533D02*
X166822285Y-38685390D01*
X166822285Y-38685390D02*
X166250857Y-39256819D01*
X166250857Y-39256819D02*
X166869904Y-39256819D01*
X67818095Y-24434819D02*
X67818095Y-23434819D01*
X67818095Y-23911009D02*
X68389523Y-23911009D01*
X68389523Y-24434819D02*
X68389523Y-23434819D01*
X69341904Y-23434819D02*
X68865714Y-23434819D01*
X68865714Y-23434819D02*
X68818095Y-23911009D01*
X68818095Y-23911009D02*
X68865714Y-23863390D01*
X68865714Y-23863390D02*
X68960952Y-23815771D01*
X68960952Y-23815771D02*
X69199047Y-23815771D01*
X69199047Y-23815771D02*
X69294285Y-23863390D01*
X69294285Y-23863390D02*
X69341904Y-23911009D01*
X69341904Y-23911009D02*
X69389523Y-24006247D01*
X69389523Y-24006247D02*
X69389523Y-24244342D01*
X69389523Y-24244342D02*
X69341904Y-24339580D01*
X69341904Y-24339580D02*
X69294285Y-24387200D01*
X69294285Y-24387200D02*
X69199047Y-24434819D01*
X69199047Y-24434819D02*
X68960952Y-24434819D01*
X68960952Y-24434819D02*
X68865714Y-24387200D01*
X68865714Y-24387200D02*
X68818095Y-24339580D01*
X85621905Y-34109718D02*
X85621905Y-33109718D01*
X85621905Y-33109718D02*
X85860000Y-33109718D01*
X85860000Y-33109718D02*
X86002857Y-33157337D01*
X86002857Y-33157337D02*
X86098095Y-33252575D01*
X86098095Y-33252575D02*
X86145714Y-33347813D01*
X86145714Y-33347813D02*
X86193333Y-33538289D01*
X86193333Y-33538289D02*
X86193333Y-33681146D01*
X86193333Y-33681146D02*
X86145714Y-33871622D01*
X86145714Y-33871622D02*
X86098095Y-33966860D01*
X86098095Y-33966860D02*
X86002857Y-34062099D01*
X86002857Y-34062099D02*
X85860000Y-34109718D01*
X85860000Y-34109718D02*
X85621905Y-34109718D01*
X87145714Y-34109718D02*
X86574286Y-34109718D01*
X86860000Y-34109718D02*
X86860000Y-33109718D01*
X86860000Y-33109718D02*
X86764762Y-33252575D01*
X86764762Y-33252575D02*
X86669524Y-33347813D01*
X86669524Y-33347813D02*
X86574286Y-33395432D01*
X85681905Y-29249104D02*
X86158095Y-29249104D01*
X85586667Y-29534819D02*
X85920000Y-28534819D01*
X85920000Y-28534819D02*
X86253333Y-29534819D01*
X187379761Y-72034819D02*
X187046428Y-71558628D01*
X186808333Y-72034819D02*
X186808333Y-71034819D01*
X186808333Y-71034819D02*
X187189285Y-71034819D01*
X187189285Y-71034819D02*
X187284523Y-71082438D01*
X187284523Y-71082438D02*
X187332142Y-71130057D01*
X187332142Y-71130057D02*
X187379761Y-71225295D01*
X187379761Y-71225295D02*
X187379761Y-71368152D01*
X187379761Y-71368152D02*
X187332142Y-71463390D01*
X187332142Y-71463390D02*
X187284523Y-71511009D01*
X187284523Y-71511009D02*
X187189285Y-71558628D01*
X187189285Y-71558628D02*
X186808333Y-71558628D01*
X187665476Y-71034819D02*
X187998809Y-72034819D01*
X187998809Y-72034819D02*
X188332142Y-71034819D01*
X188570238Y-71034819D02*
X189189285Y-71034819D01*
X189189285Y-71034819D02*
X188855952Y-71415771D01*
X188855952Y-71415771D02*
X188998809Y-71415771D01*
X188998809Y-71415771D02*
X189094047Y-71463390D01*
X189094047Y-71463390D02*
X189141666Y-71511009D01*
X189141666Y-71511009D02*
X189189285Y-71606247D01*
X189189285Y-71606247D02*
X189189285Y-71844342D01*
X189189285Y-71844342D02*
X189141666Y-71939580D01*
X189141666Y-71939580D02*
X189094047Y-71987200D01*
X189094047Y-71987200D02*
X188998809Y-72034819D01*
X188998809Y-72034819D02*
X188713095Y-72034819D01*
X188713095Y-72034819D02*
X188617857Y-71987200D01*
X188617857Y-71987200D02*
X188570238Y-71939580D01*
X138009333Y-94807580D02*
X137961714Y-94855200D01*
X137961714Y-94855200D02*
X137818857Y-94902819D01*
X137818857Y-94902819D02*
X137723619Y-94902819D01*
X137723619Y-94902819D02*
X137580762Y-94855200D01*
X137580762Y-94855200D02*
X137485524Y-94759961D01*
X137485524Y-94759961D02*
X137437905Y-94664723D01*
X137437905Y-94664723D02*
X137390286Y-94474247D01*
X137390286Y-94474247D02*
X137390286Y-94331390D01*
X137390286Y-94331390D02*
X137437905Y-94140914D01*
X137437905Y-94140914D02*
X137485524Y-94045676D01*
X137485524Y-94045676D02*
X137580762Y-93950438D01*
X137580762Y-93950438D02*
X137723619Y-93902819D01*
X137723619Y-93902819D02*
X137818857Y-93902819D01*
X137818857Y-93902819D02*
X137961714Y-93950438D01*
X137961714Y-93950438D02*
X138009333Y-93998057D01*
X138485524Y-94902819D02*
X138676000Y-94902819D01*
X138676000Y-94902819D02*
X138771238Y-94855200D01*
X138771238Y-94855200D02*
X138818857Y-94807580D01*
X138818857Y-94807580D02*
X138914095Y-94664723D01*
X138914095Y-94664723D02*
X138961714Y-94474247D01*
X138961714Y-94474247D02*
X138961714Y-94093295D01*
X138961714Y-94093295D02*
X138914095Y-93998057D01*
X138914095Y-93998057D02*
X138866476Y-93950438D01*
X138866476Y-93950438D02*
X138771238Y-93902819D01*
X138771238Y-93902819D02*
X138580762Y-93902819D01*
X138580762Y-93902819D02*
X138485524Y-93950438D01*
X138485524Y-93950438D02*
X138437905Y-93998057D01*
X138437905Y-93998057D02*
X138390286Y-94093295D01*
X138390286Y-94093295D02*
X138390286Y-94331390D01*
X138390286Y-94331390D02*
X138437905Y-94426628D01*
X138437905Y-94426628D02*
X138485524Y-94474247D01*
X138485524Y-94474247D02*
X138580762Y-94521866D01*
X138580762Y-94521866D02*
X138771238Y-94521866D01*
X138771238Y-94521866D02*
X138866476Y-94474247D01*
X138866476Y-94474247D02*
X138914095Y-94426628D01*
X138914095Y-94426628D02*
X138961714Y-94331390D01*
X75207905Y-91290819D02*
X75207905Y-90290819D01*
X75207905Y-90290819D02*
X75446000Y-90290819D01*
X75446000Y-90290819D02*
X75588857Y-90338438D01*
X75588857Y-90338438D02*
X75684095Y-90433676D01*
X75684095Y-90433676D02*
X75731714Y-90528914D01*
X75731714Y-90528914D02*
X75779333Y-90719390D01*
X75779333Y-90719390D02*
X75779333Y-90862247D01*
X75779333Y-90862247D02*
X75731714Y-91052723D01*
X75731714Y-91052723D02*
X75684095Y-91147961D01*
X75684095Y-91147961D02*
X75588857Y-91243200D01*
X75588857Y-91243200D02*
X75446000Y-91290819D01*
X75446000Y-91290819D02*
X75207905Y-91290819D01*
X76160286Y-90386057D02*
X76207905Y-90338438D01*
X76207905Y-90338438D02*
X76303143Y-90290819D01*
X76303143Y-90290819D02*
X76541238Y-90290819D01*
X76541238Y-90290819D02*
X76636476Y-90338438D01*
X76636476Y-90338438D02*
X76684095Y-90386057D01*
X76684095Y-90386057D02*
X76731714Y-90481295D01*
X76731714Y-90481295D02*
X76731714Y-90576533D01*
X76731714Y-90576533D02*
X76684095Y-90719390D01*
X76684095Y-90719390D02*
X76112667Y-91290819D01*
X76112667Y-91290819D02*
X76731714Y-91290819D01*
X147788333Y-124624580D02*
X147740714Y-124672200D01*
X147740714Y-124672200D02*
X147597857Y-124719819D01*
X147597857Y-124719819D02*
X147502619Y-124719819D01*
X147502619Y-124719819D02*
X147359762Y-124672200D01*
X147359762Y-124672200D02*
X147264524Y-124576961D01*
X147264524Y-124576961D02*
X147216905Y-124481723D01*
X147216905Y-124481723D02*
X147169286Y-124291247D01*
X147169286Y-124291247D02*
X147169286Y-124148390D01*
X147169286Y-124148390D02*
X147216905Y-123957914D01*
X147216905Y-123957914D02*
X147264524Y-123862676D01*
X147264524Y-123862676D02*
X147359762Y-123767438D01*
X147359762Y-123767438D02*
X147502619Y-123719819D01*
X147502619Y-123719819D02*
X147597857Y-123719819D01*
X147597857Y-123719819D02*
X147740714Y-123767438D01*
X147740714Y-123767438D02*
X147788333Y-123815057D01*
X148693095Y-123719819D02*
X148216905Y-123719819D01*
X148216905Y-123719819D02*
X148169286Y-124196009D01*
X148169286Y-124196009D02*
X148216905Y-124148390D01*
X148216905Y-124148390D02*
X148312143Y-124100771D01*
X148312143Y-124100771D02*
X148550238Y-124100771D01*
X148550238Y-124100771D02*
X148645476Y-124148390D01*
X148645476Y-124148390D02*
X148693095Y-124196009D01*
X148693095Y-124196009D02*
X148740714Y-124291247D01*
X148740714Y-124291247D02*
X148740714Y-124529342D01*
X148740714Y-124529342D02*
X148693095Y-124624580D01*
X148693095Y-124624580D02*
X148645476Y-124672200D01*
X148645476Y-124672200D02*
X148550238Y-124719819D01*
X148550238Y-124719819D02*
X148312143Y-124719819D01*
X148312143Y-124719819D02*
X148216905Y-124672200D01*
X148216905Y-124672200D02*
X148169286Y-124624580D01*
X114927142Y-26024819D02*
X114593809Y-25548628D01*
X114355714Y-26024819D02*
X114355714Y-25024819D01*
X114355714Y-25024819D02*
X114736666Y-25024819D01*
X114736666Y-25024819D02*
X114831904Y-25072438D01*
X114831904Y-25072438D02*
X114879523Y-25120057D01*
X114879523Y-25120057D02*
X114927142Y-25215295D01*
X114927142Y-25215295D02*
X114927142Y-25358152D01*
X114927142Y-25358152D02*
X114879523Y-25453390D01*
X114879523Y-25453390D02*
X114831904Y-25501009D01*
X114831904Y-25501009D02*
X114736666Y-25548628D01*
X114736666Y-25548628D02*
X114355714Y-25548628D01*
X115308095Y-25120057D02*
X115355714Y-25072438D01*
X115355714Y-25072438D02*
X115450952Y-25024819D01*
X115450952Y-25024819D02*
X115689047Y-25024819D01*
X115689047Y-25024819D02*
X115784285Y-25072438D01*
X115784285Y-25072438D02*
X115831904Y-25120057D01*
X115831904Y-25120057D02*
X115879523Y-25215295D01*
X115879523Y-25215295D02*
X115879523Y-25310533D01*
X115879523Y-25310533D02*
X115831904Y-25453390D01*
X115831904Y-25453390D02*
X115260476Y-26024819D01*
X115260476Y-26024819D02*
X115879523Y-26024819D01*
X116498571Y-25024819D02*
X116593809Y-25024819D01*
X116593809Y-25024819D02*
X116689047Y-25072438D01*
X116689047Y-25072438D02*
X116736666Y-25120057D01*
X116736666Y-25120057D02*
X116784285Y-25215295D01*
X116784285Y-25215295D02*
X116831904Y-25405771D01*
X116831904Y-25405771D02*
X116831904Y-25643866D01*
X116831904Y-25643866D02*
X116784285Y-25834342D01*
X116784285Y-25834342D02*
X116736666Y-25929580D01*
X116736666Y-25929580D02*
X116689047Y-25977200D01*
X116689047Y-25977200D02*
X116593809Y-26024819D01*
X116593809Y-26024819D02*
X116498571Y-26024819D01*
X116498571Y-26024819D02*
X116403333Y-25977200D01*
X116403333Y-25977200D02*
X116355714Y-25929580D01*
X116355714Y-25929580D02*
X116308095Y-25834342D01*
X116308095Y-25834342D02*
X116260476Y-25643866D01*
X116260476Y-25643866D02*
X116260476Y-25405771D01*
X116260476Y-25405771D02*
X116308095Y-25215295D01*
X116308095Y-25215295D02*
X116355714Y-25120057D01*
X116355714Y-25120057D02*
X116403333Y-25072438D01*
X116403333Y-25072438D02*
X116498571Y-25024819D01*
X144388819Y-89034857D02*
X143912628Y-89368190D01*
X144388819Y-89606285D02*
X143388819Y-89606285D01*
X143388819Y-89606285D02*
X143388819Y-89225333D01*
X143388819Y-89225333D02*
X143436438Y-89130095D01*
X143436438Y-89130095D02*
X143484057Y-89082476D01*
X143484057Y-89082476D02*
X143579295Y-89034857D01*
X143579295Y-89034857D02*
X143722152Y-89034857D01*
X143722152Y-89034857D02*
X143817390Y-89082476D01*
X143817390Y-89082476D02*
X143865009Y-89130095D01*
X143865009Y-89130095D02*
X143912628Y-89225333D01*
X143912628Y-89225333D02*
X143912628Y-89606285D01*
X144388819Y-88082476D02*
X144388819Y-88653904D01*
X144388819Y-88368190D02*
X143388819Y-88368190D01*
X143388819Y-88368190D02*
X143531676Y-88463428D01*
X143531676Y-88463428D02*
X143626914Y-88558666D01*
X143626914Y-88558666D02*
X143674533Y-88653904D01*
X144388819Y-87130095D02*
X144388819Y-87701523D01*
X144388819Y-87415809D02*
X143388819Y-87415809D01*
X143388819Y-87415809D02*
X143531676Y-87511047D01*
X143531676Y-87511047D02*
X143626914Y-87606285D01*
X143626914Y-87606285D02*
X143674533Y-87701523D01*
X154297142Y-63545580D02*
X154249523Y-63593200D01*
X154249523Y-63593200D02*
X154106666Y-63640819D01*
X154106666Y-63640819D02*
X154011428Y-63640819D01*
X154011428Y-63640819D02*
X153868571Y-63593200D01*
X153868571Y-63593200D02*
X153773333Y-63497961D01*
X153773333Y-63497961D02*
X153725714Y-63402723D01*
X153725714Y-63402723D02*
X153678095Y-63212247D01*
X153678095Y-63212247D02*
X153678095Y-63069390D01*
X153678095Y-63069390D02*
X153725714Y-62878914D01*
X153725714Y-62878914D02*
X153773333Y-62783676D01*
X153773333Y-62783676D02*
X153868571Y-62688438D01*
X153868571Y-62688438D02*
X154011428Y-62640819D01*
X154011428Y-62640819D02*
X154106666Y-62640819D01*
X154106666Y-62640819D02*
X154249523Y-62688438D01*
X154249523Y-62688438D02*
X154297142Y-62736057D01*
X155249523Y-63640819D02*
X154678095Y-63640819D01*
X154963809Y-63640819D02*
X154963809Y-62640819D01*
X154963809Y-62640819D02*
X154868571Y-62783676D01*
X154868571Y-62783676D02*
X154773333Y-62878914D01*
X154773333Y-62878914D02*
X154678095Y-62926533D01*
X155582857Y-62640819D02*
X156201904Y-62640819D01*
X156201904Y-62640819D02*
X155868571Y-63021771D01*
X155868571Y-63021771D02*
X156011428Y-63021771D01*
X156011428Y-63021771D02*
X156106666Y-63069390D01*
X156106666Y-63069390D02*
X156154285Y-63117009D01*
X156154285Y-63117009D02*
X156201904Y-63212247D01*
X156201904Y-63212247D02*
X156201904Y-63450342D01*
X156201904Y-63450342D02*
X156154285Y-63545580D01*
X156154285Y-63545580D02*
X156106666Y-63593200D01*
X156106666Y-63593200D02*
X156011428Y-63640819D01*
X156011428Y-63640819D02*
X155725714Y-63640819D01*
X155725714Y-63640819D02*
X155630476Y-63593200D01*
X155630476Y-63593200D02*
X155582857Y-63545580D01*
X111151142Y-48439580D02*
X111103523Y-48487200D01*
X111103523Y-48487200D02*
X110960666Y-48534819D01*
X110960666Y-48534819D02*
X110865428Y-48534819D01*
X110865428Y-48534819D02*
X110722571Y-48487200D01*
X110722571Y-48487200D02*
X110627333Y-48391961D01*
X110627333Y-48391961D02*
X110579714Y-48296723D01*
X110579714Y-48296723D02*
X110532095Y-48106247D01*
X110532095Y-48106247D02*
X110532095Y-47963390D01*
X110532095Y-47963390D02*
X110579714Y-47772914D01*
X110579714Y-47772914D02*
X110627333Y-47677676D01*
X110627333Y-47677676D02*
X110722571Y-47582438D01*
X110722571Y-47582438D02*
X110865428Y-47534819D01*
X110865428Y-47534819D02*
X110960666Y-47534819D01*
X110960666Y-47534819D02*
X111103523Y-47582438D01*
X111103523Y-47582438D02*
X111151142Y-47630057D01*
X112103523Y-48534819D02*
X111532095Y-48534819D01*
X111817809Y-48534819D02*
X111817809Y-47534819D01*
X111817809Y-47534819D02*
X111722571Y-47677676D01*
X111722571Y-47677676D02*
X111627333Y-47772914D01*
X111627333Y-47772914D02*
X111532095Y-47820533D01*
X112436857Y-47534819D02*
X113103523Y-47534819D01*
X113103523Y-47534819D02*
X112674952Y-48534819D01*
X162393333Y-127053580D02*
X162345714Y-127101200D01*
X162345714Y-127101200D02*
X162202857Y-127148819D01*
X162202857Y-127148819D02*
X162107619Y-127148819D01*
X162107619Y-127148819D02*
X161964762Y-127101200D01*
X161964762Y-127101200D02*
X161869524Y-127005961D01*
X161869524Y-127005961D02*
X161821905Y-126910723D01*
X161821905Y-126910723D02*
X161774286Y-126720247D01*
X161774286Y-126720247D02*
X161774286Y-126577390D01*
X161774286Y-126577390D02*
X161821905Y-126386914D01*
X161821905Y-126386914D02*
X161869524Y-126291676D01*
X161869524Y-126291676D02*
X161964762Y-126196438D01*
X161964762Y-126196438D02*
X162107619Y-126148819D01*
X162107619Y-126148819D02*
X162202857Y-126148819D01*
X162202857Y-126148819D02*
X162345714Y-126196438D01*
X162345714Y-126196438D02*
X162393333Y-126244057D01*
X163250476Y-126482152D02*
X163250476Y-127148819D01*
X163012381Y-126101200D02*
X162774286Y-126815485D01*
X162774286Y-126815485D02*
X163393333Y-126815485D01*
D11*
%TO.C,R15*%
X144050000Y-51335000D02*
X144050000Y-51665000D01*
X144050000Y-54075000D02*
X144050000Y-53745000D01*
X150590000Y-51335000D02*
X144050000Y-51335000D01*
X150590000Y-51665000D02*
X150590000Y-51335000D01*
X150590000Y-53745000D02*
X150590000Y-54075000D01*
X150590000Y-54075000D02*
X144050000Y-54075000D01*
%TO.C,RV4*%
X179690000Y-95570000D02*
X179690000Y-112710000D01*
X179690000Y-95570000D02*
X190610000Y-95570000D01*
X179690000Y-112710000D02*
X190610000Y-112710000D01*
X199180000Y-104140000D02*
G75*
G02*
X182040000Y-104140000I-8570000J0D01*
G01*
X182040000Y-104140000D02*
G75*
G02*
X199180000Y-104140000I8570000J0D01*
G01*
%TO.C,RV5*%
X179690000Y-118430000D02*
X179690000Y-135570000D01*
X179690000Y-118430000D02*
X190610000Y-118430000D01*
X179690000Y-135570000D02*
X190610000Y-135570000D01*
X199180000Y-127000000D02*
G75*
G02*
X182040000Y-127000000I-8570000J0D01*
G01*
X182040000Y-127000000D02*
G75*
G02*
X199180000Y-127000000I8570000J0D01*
G01*
%TO.C,R1*%
X41810000Y-94520000D02*
X41810000Y-101060000D01*
X41810000Y-101060000D02*
X42140000Y-101060000D01*
X42140000Y-94520000D02*
X41810000Y-94520000D01*
X44220000Y-94520000D02*
X44550000Y-94520000D01*
X44550000Y-94520000D02*
X44550000Y-101060000D01*
X44550000Y-101060000D02*
X44220000Y-101060000D01*
%TO.C,R12*%
X105818000Y-84614000D02*
X106148000Y-84614000D01*
X105818000Y-91154000D02*
X105818000Y-84614000D01*
X106148000Y-91154000D02*
X105818000Y-91154000D01*
X108228000Y-91154000D02*
X108558000Y-91154000D01*
X108558000Y-84614000D02*
X108228000Y-84614000D01*
X108558000Y-91154000D02*
X108558000Y-84614000D01*
%TO.C,R18*%
X66326000Y-54510000D02*
X66326000Y-54840000D01*
X66326000Y-57250000D02*
X66326000Y-56920000D01*
X72866000Y-54510000D02*
X66326000Y-54510000D01*
X72866000Y-54840000D02*
X72866000Y-54510000D01*
X72866000Y-56920000D02*
X72866000Y-57250000D01*
X72866000Y-57250000D02*
X66326000Y-57250000D01*
%TO.C,R8*%
X133250000Y-112554000D02*
X133580000Y-112554000D01*
X133250000Y-119094000D02*
X133250000Y-112554000D01*
X133580000Y-119094000D02*
X133250000Y-119094000D01*
X135660000Y-119094000D02*
X135990000Y-119094000D01*
X135990000Y-112554000D02*
X135660000Y-112554000D01*
X135990000Y-119094000D02*
X135990000Y-112554000D01*
%TO.C,R4*%
X77370000Y-100790000D02*
X77370000Y-107330000D01*
X77370000Y-107330000D02*
X77700000Y-107330000D01*
X77700000Y-100790000D02*
X77370000Y-100790000D01*
X79780000Y-100790000D02*
X80110000Y-100790000D01*
X80110000Y-100790000D02*
X80110000Y-107330000D01*
X80110000Y-107330000D02*
X79780000Y-107330000D01*
%TO.C,R3*%
X63270000Y-117856000D02*
X63960000Y-117856000D01*
X63960000Y-116136000D02*
X63960000Y-119576000D01*
X63960000Y-119576000D02*
X73200000Y-119576000D01*
X73200000Y-116136000D02*
X63960000Y-116136000D01*
X73200000Y-119576000D02*
X73200000Y-116136000D01*
X73890000Y-117856000D02*
X73200000Y-117856000D01*
%TO.C,C10*%
X138708000Y-48816000D02*
X138708000Y-39576000D01*
X156948000Y-39576000D02*
X138708000Y-39576000D01*
X156948000Y-48816000D02*
X138708000Y-48816000D01*
X156948000Y-48816000D02*
X156948000Y-39576000D01*
%TO.C,C16*%
X100560000Y-55811000D02*
X97583000Y-55811000D01*
X100560000Y-55851000D02*
X97590000Y-55851000D01*
X100560000Y-55891000D02*
X97598000Y-55891000D01*
X100560000Y-55931000D02*
X97606000Y-55931000D01*
X100560000Y-55971000D02*
X97615000Y-55971000D01*
X100560000Y-56011000D02*
X97624000Y-56011000D01*
X100560000Y-56051000D02*
X97633000Y-56051000D01*
X100560000Y-56091000D02*
X97643000Y-56091000D01*
X100560000Y-56131000D02*
X97653000Y-56131000D01*
X100560000Y-56171000D02*
X97664000Y-56171000D01*
X100560000Y-56211000D02*
X97675000Y-56211000D01*
X100560000Y-56251000D02*
X97686000Y-56251000D01*
X100560000Y-56291000D02*
X97698000Y-56291000D01*
X100560000Y-56331000D02*
X97711000Y-56331000D01*
X100560000Y-56371000D02*
X97723000Y-56371000D01*
X100560000Y-56411000D02*
X97737000Y-56411000D01*
X100560000Y-56451000D02*
X97750000Y-56451000D01*
X100560000Y-56491000D02*
X97765000Y-56491000D01*
X100560000Y-56531000D02*
X97779000Y-56531000D01*
X100560000Y-56571000D02*
X97795000Y-56571000D01*
X100560000Y-56611000D02*
X97810000Y-56611000D01*
X100560000Y-56651000D02*
X97826000Y-56651000D01*
X100560000Y-56691000D02*
X97843000Y-56691000D01*
X100560000Y-56731000D02*
X97860000Y-56731000D01*
X100560000Y-56771000D02*
X97878000Y-56771000D01*
X100560000Y-56811000D02*
X97896000Y-56811000D01*
X100560000Y-56851000D02*
X97914000Y-56851000D01*
X100560000Y-56891000D02*
X97934000Y-56891000D01*
X100560000Y-56931000D02*
X97953000Y-56931000D01*
X100560000Y-56971000D02*
X97973000Y-56971000D01*
X100560000Y-57011000D02*
X97994000Y-57011000D01*
X100560000Y-57051000D02*
X98016000Y-57051000D01*
X100560000Y-57091000D02*
X98038000Y-57091000D01*
X100560000Y-57131000D02*
X98060000Y-57131000D01*
X100560000Y-57171000D02*
X98083000Y-57171000D01*
X100560000Y-57211000D02*
X98107000Y-57211000D01*
X100560000Y-57251000D02*
X98131000Y-57251000D01*
X100560000Y-57291000D02*
X98156000Y-57291000D01*
X100560000Y-57331000D02*
X98182000Y-57331000D01*
X100560000Y-57371000D02*
X98208000Y-57371000D01*
X100560000Y-57411000D02*
X98235000Y-57411000D01*
X100560000Y-57451000D02*
X98262000Y-57451000D01*
X100560000Y-57491000D02*
X98291000Y-57491000D01*
X100560000Y-57531000D02*
X98320000Y-57531000D01*
X100560000Y-57571000D02*
X98350000Y-57571000D01*
X100560000Y-57611000D02*
X98380000Y-57611000D01*
X100560000Y-57651000D02*
X98411000Y-57651000D01*
X100560000Y-57691000D02*
X98444000Y-57691000D01*
X100560000Y-57731000D02*
X98476000Y-57731000D01*
X100560000Y-57771000D02*
X98510000Y-57771000D01*
X100560000Y-57811000D02*
X98545000Y-57811000D01*
X100560000Y-57851000D02*
X98581000Y-57851000D01*
X102133000Y-59171000D02*
X101067000Y-59171000D01*
X102368000Y-59131000D02*
X100832000Y-59131000D01*
X102548000Y-59091000D02*
X100652000Y-59091000D01*
X102698000Y-59051000D02*
X100502000Y-59051000D01*
X102829000Y-59011000D02*
X100371000Y-59011000D01*
X102946000Y-58971000D02*
X100254000Y-58971000D01*
X103053000Y-58931000D02*
X100147000Y-58931000D01*
X103152000Y-58891000D02*
X100048000Y-58891000D01*
X103245000Y-58851000D02*
X99955000Y-58851000D01*
X103331000Y-58811000D02*
X99869000Y-58811000D01*
X103413000Y-58771000D02*
X99787000Y-58771000D01*
X103490000Y-58731000D02*
X99710000Y-58731000D01*
X103564000Y-58691000D02*
X99636000Y-58691000D01*
X103634000Y-58651000D02*
X99566000Y-58651000D01*
X103702000Y-58611000D02*
X99498000Y-58611000D01*
X103766000Y-58571000D02*
X99434000Y-58571000D01*
X103828000Y-58531000D02*
X99372000Y-58531000D01*
X103887000Y-58491000D02*
X99313000Y-58491000D01*
X103915000Y-50680302D02*
X103915000Y-51480302D01*
X103945000Y-58451000D02*
X99255000Y-58451000D01*
X104000000Y-58411000D02*
X99200000Y-58411000D01*
X104054000Y-58371000D02*
X99146000Y-58371000D01*
X104105000Y-58331000D02*
X99095000Y-58331000D01*
X104156000Y-58291000D02*
X99044000Y-58291000D01*
X104204000Y-58251000D02*
X98996000Y-58251000D01*
X104251000Y-58211000D02*
X98949000Y-58211000D01*
X104297000Y-58171000D02*
X98903000Y-58171000D01*
X104315000Y-51080302D02*
X103515000Y-51080302D01*
X104341000Y-58131000D02*
X98859000Y-58131000D01*
X104384000Y-58091000D02*
X98816000Y-58091000D01*
X104426000Y-58051000D02*
X98774000Y-58051000D01*
X104467000Y-58011000D02*
X98733000Y-58011000D01*
X104507000Y-57971000D02*
X98693000Y-57971000D01*
X104545000Y-57931000D02*
X98655000Y-57931000D01*
X104583000Y-57891000D02*
X98617000Y-57891000D01*
X104619000Y-57851000D02*
X102640000Y-57851000D01*
X104655000Y-57811000D02*
X102640000Y-57811000D01*
X104690000Y-57771000D02*
X102640000Y-57771000D01*
X104724000Y-57731000D02*
X102640000Y-57731000D01*
X104756000Y-57691000D02*
X102640000Y-57691000D01*
X104789000Y-57651000D02*
X102640000Y-57651000D01*
X104820000Y-57611000D02*
X102640000Y-57611000D01*
X104850000Y-57571000D02*
X102640000Y-57571000D01*
X104880000Y-57531000D02*
X102640000Y-57531000D01*
X104909000Y-57491000D02*
X102640000Y-57491000D01*
X104938000Y-57451000D02*
X102640000Y-57451000D01*
X104965000Y-57411000D02*
X102640000Y-57411000D01*
X104992000Y-57371000D02*
X102640000Y-57371000D01*
X105018000Y-57331000D02*
X102640000Y-57331000D01*
X105044000Y-57291000D02*
X102640000Y-57291000D01*
X105069000Y-57251000D02*
X102640000Y-57251000D01*
X105093000Y-57211000D02*
X102640000Y-57211000D01*
X105117000Y-57171000D02*
X102640000Y-57171000D01*
X105140000Y-57131000D02*
X102640000Y-57131000D01*
X105162000Y-57091000D02*
X102640000Y-57091000D01*
X105184000Y-57051000D02*
X102640000Y-57051000D01*
X105206000Y-57011000D02*
X102640000Y-57011000D01*
X105227000Y-56971000D02*
X102640000Y-56971000D01*
X105247000Y-56931000D02*
X102640000Y-56931000D01*
X105266000Y-56891000D02*
X102640000Y-56891000D01*
X105286000Y-56851000D02*
X102640000Y-56851000D01*
X105304000Y-56811000D02*
X102640000Y-56811000D01*
X105322000Y-56771000D02*
X102640000Y-56771000D01*
X105340000Y-56731000D02*
X102640000Y-56731000D01*
X105357000Y-56691000D02*
X102640000Y-56691000D01*
X105374000Y-56651000D02*
X102640000Y-56651000D01*
X105390000Y-56611000D02*
X102640000Y-56611000D01*
X105405000Y-56571000D02*
X102640000Y-56571000D01*
X105421000Y-56531000D02*
X102640000Y-56531000D01*
X105435000Y-56491000D02*
X102640000Y-56491000D01*
X105450000Y-56451000D02*
X102640000Y-56451000D01*
X105463000Y-56411000D02*
X102640000Y-56411000D01*
X105477000Y-56371000D02*
X102640000Y-56371000D01*
X105489000Y-56331000D02*
X102640000Y-56331000D01*
X105502000Y-56291000D02*
X102640000Y-56291000D01*
X105514000Y-56251000D02*
X102640000Y-56251000D01*
X105525000Y-56211000D02*
X102640000Y-56211000D01*
X105536000Y-56171000D02*
X102640000Y-56171000D01*
X105547000Y-56131000D02*
X102640000Y-56131000D01*
X105557000Y-56091000D02*
X102640000Y-56091000D01*
X105567000Y-56051000D02*
X102640000Y-56051000D01*
X105576000Y-56011000D02*
X102640000Y-56011000D01*
X105585000Y-55971000D02*
X102640000Y-55971000D01*
X105594000Y-55931000D02*
X102640000Y-55931000D01*
X105602000Y-55891000D02*
X102640000Y-55891000D01*
X105610000Y-55851000D02*
X102640000Y-55851000D01*
X105617000Y-55811000D02*
X102640000Y-55811000D01*
X105624000Y-55770000D02*
X97576000Y-55770000D01*
X105630000Y-55730000D02*
X97570000Y-55730000D01*
X105637000Y-55690000D02*
X97563000Y-55690000D01*
X105642000Y-55650000D02*
X97558000Y-55650000D01*
X105648000Y-55610000D02*
X97552000Y-55610000D01*
X105652000Y-55570000D02*
X97548000Y-55570000D01*
X105657000Y-55530000D02*
X97543000Y-55530000D01*
X105661000Y-55490000D02*
X97539000Y-55490000D01*
X105665000Y-55450000D02*
X97535000Y-55450000D01*
X105668000Y-55410000D02*
X97532000Y-55410000D01*
X105671000Y-55370000D02*
X97529000Y-55370000D01*
X105674000Y-55330000D02*
X97526000Y-55330000D01*
X105676000Y-55290000D02*
X97524000Y-55290000D01*
X105677000Y-55250000D02*
X97523000Y-55250000D01*
X105679000Y-55210000D02*
X97521000Y-55210000D01*
X105680000Y-55090000D02*
X97520000Y-55090000D01*
X105680000Y-55130000D02*
X97520000Y-55130000D01*
X105680000Y-55170000D02*
X97520000Y-55170000D01*
X105720000Y-55090000D02*
G75*
G02*
X97480000Y-55090000I-4120000J0D01*
G01*
X97480000Y-55090000D02*
G75*
G02*
X105720000Y-55090000I4120000J0D01*
G01*
%TO.C,R13*%
X125122000Y-49562000D02*
X125122000Y-56102000D01*
X125122000Y-56102000D02*
X125452000Y-56102000D01*
X125452000Y-49562000D02*
X125122000Y-49562000D01*
X127532000Y-49562000D02*
X127862000Y-49562000D01*
X127862000Y-49562000D02*
X127862000Y-56102000D01*
X127862000Y-56102000D02*
X127532000Y-56102000D01*
%TO.C,RV2*%
X179690000Y-49850000D02*
X179690000Y-66990000D01*
X179690000Y-49850000D02*
X190610000Y-49850000D01*
X179690000Y-66990000D02*
X190610000Y-66990000D01*
X199180000Y-58420000D02*
G75*
G02*
X182040000Y-58420000I-8570000J0D01*
G01*
X182040000Y-58420000D02*
G75*
G02*
X199180000Y-58420000I8570000J0D01*
G01*
%TO.C,R5*%
X90710000Y-113946000D02*
X97250000Y-113946000D01*
X90710000Y-114276000D02*
X90710000Y-113946000D01*
X90710000Y-116356000D02*
X90710000Y-116686000D01*
X90710000Y-116686000D02*
X97250000Y-116686000D01*
X97250000Y-113946000D02*
X97250000Y-114276000D01*
X97250000Y-116686000D02*
X97250000Y-116356000D01*
%TO.C,R7*%
X145955000Y-126265000D02*
X145955000Y-126595000D01*
X145955000Y-129005000D02*
X145955000Y-128675000D01*
X152495000Y-126265000D02*
X145955000Y-126265000D01*
X152495000Y-126595000D02*
X152495000Y-126265000D01*
X152495000Y-128675000D02*
X152495000Y-129005000D01*
X152495000Y-129005000D02*
X145955000Y-129005000D01*
D12*
%TO.C,U1*%
X110490000Y-111410000D02*
X116840000Y-111410000D01*
X110490000Y-121000000D02*
X116840000Y-121000000D01*
D13*
X108730000Y-112395000D02*
G75*
G02*
X108530000Y-112395000I-100000J0D01*
G01*
X108530000Y-112395000D02*
G75*
G02*
X108730000Y-112395000I100000J0D01*
G01*
D11*
%TO.C,R6*%
X110395000Y-124360000D02*
X116935000Y-124360000D01*
X110395000Y-124690000D02*
X110395000Y-124360000D01*
X110395000Y-126770000D02*
X110395000Y-127100000D01*
X110395000Y-127100000D02*
X116935000Y-127100000D01*
X116935000Y-124360000D02*
X116935000Y-124690000D01*
X116935000Y-127100000D02*
X116935000Y-126770000D01*
%TO.C,R17*%
X58574000Y-66580000D02*
X58904000Y-66580000D01*
X58574000Y-73120000D02*
X58574000Y-66580000D01*
X58904000Y-73120000D02*
X58574000Y-73120000D01*
X60984000Y-73120000D02*
X61314000Y-73120000D01*
X61314000Y-66580000D02*
X60984000Y-66580000D01*
X61314000Y-73120000D02*
X61314000Y-66580000D01*
%TO.C,C2*%
X66710000Y-100380000D02*
X66710000Y-107820000D01*
X70450000Y-100380000D02*
X66710000Y-100380000D01*
X70450000Y-100380000D02*
X70450000Y-107820000D01*
X70450000Y-107820000D02*
X66710000Y-107820000D01*
D12*
%TO.C,U4*%
X69375000Y-67087000D02*
X75725000Y-67087000D01*
X69375000Y-76677000D02*
X75725000Y-76677000D01*
D13*
X67615000Y-68072000D02*
G75*
G02*
X67415000Y-68072000I-100000J0D01*
G01*
X67415000Y-68072000D02*
G75*
G02*
X67615000Y-68072000I100000J0D01*
G01*
D11*
%TO.C,C8*%
X156416000Y-80615000D02*
X156416000Y-79559000D01*
X156416000Y-83001000D02*
X156416000Y-81945000D01*
X165656000Y-79559000D02*
X156416000Y-79559000D01*
X165656000Y-80615000D02*
X165656000Y-79559000D01*
X165656000Y-83001000D02*
X156416000Y-83001000D01*
X165656000Y-83001000D02*
X165656000Y-81945000D01*
%TO.C,R9*%
X144050000Y-76735000D02*
X144050000Y-77065000D01*
X144050000Y-79475000D02*
X144050000Y-79145000D01*
X150590000Y-76735000D02*
X144050000Y-76735000D01*
X150590000Y-77065000D02*
X150590000Y-76735000D01*
X150590000Y-79145000D02*
X150590000Y-79475000D01*
X150590000Y-79475000D02*
X144050000Y-79475000D01*
%TO.C,R16*%
X122206000Y-72798000D02*
X122206000Y-73128000D01*
X122206000Y-75538000D02*
X122206000Y-75208000D01*
X128746000Y-72798000D02*
X122206000Y-72798000D01*
X128746000Y-73128000D02*
X128746000Y-72798000D01*
X128746000Y-75208000D02*
X128746000Y-75538000D01*
X128746000Y-75538000D02*
X122206000Y-75538000D01*
%TO.C,R19*%
X64670000Y-43466000D02*
X64670000Y-50006000D01*
X64670000Y-50006000D02*
X65000000Y-50006000D01*
X65000000Y-43466000D02*
X64670000Y-43466000D01*
X67080000Y-43466000D02*
X67410000Y-43466000D01*
X67410000Y-43466000D02*
X67410000Y-50006000D01*
X67410000Y-50006000D02*
X67080000Y-50006000D01*
%TO.C,C6*%
X165962000Y-103632000D02*
G75*
G02*
X161722000Y-103632000I-2120000J0D01*
G01*
X161722000Y-103632000D02*
G75*
G02*
X165962000Y-103632000I2120000J0D01*
G01*
%TO.C,R22*%
X74962000Y-80418000D02*
X81502000Y-80418000D01*
X74962000Y-80748000D02*
X74962000Y-80418000D01*
X74962000Y-82828000D02*
X74962000Y-83158000D01*
X74962000Y-83158000D02*
X81502000Y-83158000D01*
X81502000Y-80418000D02*
X81502000Y-80748000D01*
X81502000Y-83158000D02*
X81502000Y-82828000D01*
%TO.C,C14*%
X71716000Y-61976000D02*
G75*
G02*
X67476000Y-61976000I-2120000J0D01*
G01*
X67476000Y-61976000D02*
G75*
G02*
X71716000Y-61976000I2120000J0D01*
G01*
%TO.C,C11*%
X117076000Y-48228000D02*
X117076000Y-59468000D01*
X119471000Y-48228000D02*
X117076000Y-48228000D01*
X119471000Y-59468000D02*
X117076000Y-59468000D01*
X123716000Y-48228000D02*
X121321000Y-48228000D01*
X123716000Y-48228000D02*
X123716000Y-59468000D01*
X123716000Y-59468000D02*
X121321000Y-59468000D01*
%TO.C,C15*%
X72056000Y-39100000D02*
X77296000Y-39100000D01*
X72056000Y-52340000D02*
X72056000Y-39100000D01*
X72056000Y-52340000D02*
X77296000Y-52340000D01*
X77296000Y-52340000D02*
X77296000Y-39100000D01*
%TO.C,C7*%
X138200000Y-109784000D02*
X138200000Y-101544000D01*
X156440000Y-101544000D02*
X138200000Y-101544000D01*
X156440000Y-109784000D02*
X138200000Y-109784000D01*
X156440000Y-109784000D02*
X156440000Y-101544000D01*
D12*
%TO.C,U3*%
X127381000Y-59721000D02*
X133731000Y-59721000D01*
X127381000Y-69311000D02*
X133731000Y-69311000D01*
D13*
X125621000Y-60706000D02*
G75*
G02*
X125421000Y-60706000I-100000J0D01*
G01*
X125421000Y-60706000D02*
G75*
G02*
X125621000Y-60706000I100000J0D01*
G01*
D11*
%TO.C,RV1*%
X179690000Y-26990000D02*
X179690000Y-44130000D01*
X179690000Y-26990000D02*
X190610000Y-26990000D01*
X179690000Y-44130000D02*
X190610000Y-44130000D01*
X199180000Y-35560000D02*
G75*
G02*
X182040000Y-35560000I-8570000J0D01*
G01*
X182040000Y-35560000D02*
G75*
G02*
X199180000Y-35560000I8570000J0D01*
G01*
%TO.C,R2*%
X66580000Y-124106000D02*
X66580000Y-124436000D01*
X66580000Y-126846000D02*
X66580000Y-126516000D01*
X73120000Y-124106000D02*
X66580000Y-124106000D01*
X73120000Y-124436000D02*
X73120000Y-124106000D01*
X73120000Y-126516000D02*
X73120000Y-126846000D01*
X73120000Y-126846000D02*
X66580000Y-126846000D01*
%TO.C,R14*%
X113570000Y-64162000D02*
X113570000Y-64492000D01*
X113570000Y-66902000D02*
X113570000Y-66572000D01*
X120110000Y-64162000D02*
X113570000Y-64162000D01*
X120110000Y-64492000D02*
X120110000Y-64162000D01*
X120110000Y-66572000D02*
X120110000Y-66902000D01*
X120110000Y-66902000D02*
X113570000Y-66902000D01*
%TO.C,R10*%
X112930000Y-82074000D02*
X113260000Y-82074000D01*
X112930000Y-88614000D02*
X112930000Y-82074000D01*
X113260000Y-88614000D02*
X112930000Y-88614000D01*
X115340000Y-88614000D02*
X115670000Y-88614000D01*
X115670000Y-82074000D02*
X115340000Y-82074000D01*
X115670000Y-88614000D02*
X115670000Y-82074000D01*
%TO.C,R21*%
X112300000Y-32920000D02*
X112300000Y-33250000D01*
X112300000Y-35660000D02*
X112300000Y-35330000D01*
X118840000Y-32920000D02*
X112300000Y-32920000D01*
X118840000Y-33250000D02*
X118840000Y-32920000D01*
X118840000Y-35330000D02*
X118840000Y-35660000D01*
X118840000Y-35660000D02*
X112300000Y-35660000D01*
%TO.C,C1*%
X64352000Y-129702000D02*
X64352000Y-133442000D01*
X64352000Y-129702000D02*
X71792000Y-129702000D01*
X64352000Y-133442000D02*
X71792000Y-133442000D01*
X71792000Y-129702000D02*
X71792000Y-133442000D01*
%TO.C,RV6*%
X48910000Y-47310000D02*
X37990000Y-47310000D01*
X48910000Y-64450000D02*
X37990000Y-64450000D01*
X48910000Y-64450000D02*
X48910000Y-47310000D01*
X46560000Y-55880000D02*
G75*
G02*
X29420000Y-55880000I-8570000J0D01*
G01*
X29420000Y-55880000D02*
G75*
G02*
X46560000Y-55880000I8570000J0D01*
G01*
D12*
%TO.C,U2*%
X123825000Y-83089000D02*
X130175000Y-83089000D01*
X123825000Y-92679000D02*
X130175000Y-92679000D01*
D13*
X122065000Y-84074000D02*
G75*
G02*
X121865000Y-84074000I-100000J0D01*
G01*
X121865000Y-84074000D02*
G75*
G02*
X122065000Y-84074000I100000J0D01*
G01*
D11*
%TO.C,C12*%
X158988000Y-37672000D02*
X158988000Y-32432000D01*
X172228000Y-32432000D02*
X158988000Y-32432000D01*
X172228000Y-37672000D02*
X158988000Y-37672000D01*
X172228000Y-37672000D02*
X172228000Y-32432000D01*
%TO.C,D1*%
X86725101Y-30480000D02*
X85520000Y-30480000D01*
X91074899Y-30480000D02*
G75*
G02*
X86725101Y-30480000I-2174899J0D01*
G01*
X86725101Y-30480000D02*
G75*
G02*
X91074899Y-30480000I2174899J0D01*
G01*
%TO.C,RV3*%
X179690000Y-72710000D02*
X179690000Y-89850000D01*
X179690000Y-72710000D02*
X190610000Y-72710000D01*
X179690000Y-89850000D02*
X190610000Y-89850000D01*
X199180000Y-81280000D02*
G75*
G02*
X182040000Y-81280000I-8570000J0D01*
G01*
X182040000Y-81280000D02*
G75*
G02*
X199180000Y-81280000I8570000J0D01*
G01*
%TO.C,C3*%
X123240000Y-122820000D02*
X123240000Y-128560000D01*
X123240000Y-122820000D02*
X130680000Y-122820000D01*
X123240000Y-128560000D02*
X130680000Y-128560000D01*
X130680000Y-122820000D02*
X130680000Y-128560000D01*
%TO.C,C9*%
X134556000Y-93318000D02*
X134556000Y-90578000D01*
X141796000Y-90578000D02*
X134556000Y-90578000D01*
X141796000Y-93318000D02*
X134556000Y-93318000D01*
X141796000Y-93318000D02*
X141796000Y-90578000D01*
%TO.C,D2*%
X78006000Y-86296000D02*
X78006000Y-85977000D01*
X78006000Y-88775000D02*
X78006000Y-88456000D01*
X73702758Y-86295276D02*
G75*
G02*
X78006000Y-85977251I2243242J-1080724D01*
G01*
X74263287Y-86295039D02*
G75*
G02*
X77629330Y-86296000I1682713J-1080961D01*
G01*
X77629330Y-88456000D02*
G75*
G02*
X74263287Y-88456961I-1683330J1080000D01*
G01*
X78006000Y-88774749D02*
G75*
G02*
X73702758Y-88456724I-2060000J1398749D01*
G01*
%TO.C,C5*%
X141335000Y-123135000D02*
X141335000Y-116895000D01*
X154575000Y-116895000D02*
X141335000Y-116895000D01*
X154575000Y-123135000D02*
X141335000Y-123135000D01*
X154575000Y-123135000D02*
X154575000Y-116895000D01*
%TO.C,R20*%
X112300000Y-26570000D02*
X118840000Y-26570000D01*
X112300000Y-26900000D02*
X112300000Y-26570000D01*
X112300000Y-28980000D02*
X112300000Y-29310000D01*
X112300000Y-29310000D02*
X118840000Y-29310000D01*
X118840000Y-26570000D02*
X118840000Y-26900000D01*
X118840000Y-29310000D02*
X118840000Y-28980000D01*
%TO.C,R11*%
X144934000Y-85122000D02*
X145264000Y-85122000D01*
X144934000Y-91662000D02*
X144934000Y-85122000D01*
X145264000Y-91662000D02*
X144934000Y-91662000D01*
X147344000Y-91662000D02*
X147674000Y-91662000D01*
X147674000Y-85122000D02*
X147344000Y-85122000D01*
X147674000Y-91662000D02*
X147674000Y-85122000D01*
%TO.C,C13*%
X146820000Y-62056000D02*
X146820000Y-56816000D01*
X163060000Y-56816000D02*
X146820000Y-56816000D01*
X163060000Y-62056000D02*
X146820000Y-62056000D01*
X163060000Y-62056000D02*
X163060000Y-56816000D01*
%TO.C,C17*%
X109683000Y-43464000D02*
X109683000Y-42896000D01*
X109723000Y-43698000D02*
X109723000Y-42662000D01*
X109763000Y-43857000D02*
X109763000Y-42503000D01*
X109803000Y-43985000D02*
X109803000Y-42375000D01*
X109843000Y-44095000D02*
X109843000Y-42265000D01*
X109883000Y-44191000D02*
X109883000Y-42169000D01*
X109923000Y-44278000D02*
X109923000Y-42082000D01*
X109963000Y-44358000D02*
X109963000Y-42002000D01*
X110003000Y-44431000D02*
X110003000Y-41929000D01*
X110043000Y-44499000D02*
X110043000Y-41861000D01*
X110083000Y-44563000D02*
X110083000Y-41797000D01*
X110123000Y-44623000D02*
X110123000Y-41737000D01*
X110163000Y-44680000D02*
X110163000Y-41680000D01*
X110203000Y-44734000D02*
X110203000Y-41626000D01*
X110243000Y-44785000D02*
X110243000Y-41575000D01*
X110283000Y-42140000D02*
X110283000Y-41527000D01*
X110283000Y-44833000D02*
X110283000Y-44220000D01*
X110323000Y-42140000D02*
X110323000Y-41481000D01*
X110323000Y-44879000D02*
X110323000Y-44220000D01*
X110363000Y-42140000D02*
X110363000Y-41437000D01*
X110363000Y-44923000D02*
X110363000Y-44220000D01*
X110403000Y-42140000D02*
X110403000Y-41395000D01*
X110403000Y-44965000D02*
X110403000Y-44220000D01*
X110443000Y-42140000D02*
X110443000Y-41354000D01*
X110443000Y-45006000D02*
X110443000Y-44220000D01*
X110483000Y-42140000D02*
X110483000Y-41316000D01*
X110483000Y-45044000D02*
X110483000Y-44220000D01*
X110523000Y-42140000D02*
X110523000Y-41279000D01*
X110523000Y-45081000D02*
X110523000Y-44220000D01*
X110563000Y-42140000D02*
X110563000Y-41243000D01*
X110563000Y-45117000D02*
X110563000Y-44220000D01*
X110603000Y-42140000D02*
X110603000Y-41209000D01*
X110603000Y-45151000D02*
X110603000Y-44220000D01*
X110643000Y-42140000D02*
X110643000Y-41176000D01*
X110643000Y-45184000D02*
X110643000Y-44220000D01*
X110683000Y-42140000D02*
X110683000Y-41145000D01*
X110683000Y-45215000D02*
X110683000Y-44220000D01*
X110723000Y-42140000D02*
X110723000Y-41115000D01*
X110723000Y-45245000D02*
X110723000Y-44220000D01*
X110763000Y-42140000D02*
X110763000Y-41085000D01*
X110763000Y-45275000D02*
X110763000Y-44220000D01*
X110803000Y-42140000D02*
X110803000Y-41058000D01*
X110803000Y-45302000D02*
X110803000Y-44220000D01*
X110843000Y-42140000D02*
X110843000Y-41031000D01*
X110843000Y-45329000D02*
X110843000Y-44220000D01*
X110883000Y-42140000D02*
X110883000Y-41005000D01*
X110883000Y-45355000D02*
X110883000Y-44220000D01*
X110923000Y-42140000D02*
X110923000Y-40980000D01*
X110923000Y-45380000D02*
X110923000Y-44220000D01*
X110963000Y-42140000D02*
X110963000Y-40956000D01*
X110963000Y-45404000D02*
X110963000Y-44220000D01*
X111003000Y-42140000D02*
X111003000Y-40933000D01*
X111003000Y-45427000D02*
X111003000Y-44220000D01*
X111043000Y-42140000D02*
X111043000Y-40912000D01*
X111043000Y-45448000D02*
X111043000Y-44220000D01*
X111083000Y-42140000D02*
X111083000Y-40890000D01*
X111083000Y-45470000D02*
X111083000Y-44220000D01*
X111123000Y-42140000D02*
X111123000Y-40870000D01*
X111123000Y-45490000D02*
X111123000Y-44220000D01*
X111163000Y-42140000D02*
X111163000Y-40851000D01*
X111163000Y-45509000D02*
X111163000Y-44220000D01*
X111203000Y-42140000D02*
X111203000Y-40832000D01*
X111203000Y-45528000D02*
X111203000Y-44220000D01*
X111243000Y-42140000D02*
X111243000Y-40815000D01*
X111243000Y-45545000D02*
X111243000Y-44220000D01*
X111283000Y-42140000D02*
X111283000Y-40798000D01*
X111283000Y-45562000D02*
X111283000Y-44220000D01*
X111323000Y-42140000D02*
X111323000Y-40782000D01*
X111323000Y-45578000D02*
X111323000Y-44220000D01*
X111363000Y-42140000D02*
X111363000Y-40766000D01*
X111363000Y-45594000D02*
X111363000Y-44220000D01*
X111403000Y-42140000D02*
X111403000Y-40752000D01*
X111403000Y-45608000D02*
X111403000Y-44220000D01*
X111443000Y-42140000D02*
X111443000Y-40738000D01*
X111443000Y-45622000D02*
X111443000Y-44220000D01*
X111483000Y-42140000D02*
X111483000Y-40725000D01*
X111483000Y-45635000D02*
X111483000Y-44220000D01*
X111523000Y-42140000D02*
X111523000Y-40712000D01*
X111523000Y-45648000D02*
X111523000Y-44220000D01*
X111563000Y-42140000D02*
X111563000Y-40700000D01*
X111563000Y-45660000D02*
X111563000Y-44220000D01*
X111604000Y-42140000D02*
X111604000Y-40689000D01*
X111604000Y-45671000D02*
X111604000Y-44220000D01*
X111644000Y-42140000D02*
X111644000Y-40679000D01*
X111644000Y-45681000D02*
X111644000Y-44220000D01*
X111684000Y-42140000D02*
X111684000Y-40669000D01*
X111684000Y-45691000D02*
X111684000Y-44220000D01*
X111724000Y-42140000D02*
X111724000Y-40660000D01*
X111724000Y-45700000D02*
X111724000Y-44220000D01*
X111764000Y-42140000D02*
X111764000Y-40652000D01*
X111764000Y-45708000D02*
X111764000Y-44220000D01*
X111804000Y-42140000D02*
X111804000Y-40644000D01*
X111804000Y-45716000D02*
X111804000Y-44220000D01*
X111844000Y-42140000D02*
X111844000Y-40637000D01*
X111844000Y-45723000D02*
X111844000Y-44220000D01*
X111884000Y-42140000D02*
X111884000Y-40630000D01*
X111884000Y-45730000D02*
X111884000Y-44220000D01*
X111924000Y-42140000D02*
X111924000Y-40624000D01*
X111924000Y-45736000D02*
X111924000Y-44220000D01*
X111964000Y-42140000D02*
X111964000Y-40619000D01*
X111964000Y-45741000D02*
X111964000Y-44220000D01*
X112004000Y-42140000D02*
X112004000Y-40615000D01*
X112004000Y-45745000D02*
X112004000Y-44220000D01*
X112044000Y-42140000D02*
X112044000Y-40611000D01*
X112044000Y-45749000D02*
X112044000Y-44220000D01*
X112084000Y-42140000D02*
X112084000Y-40607000D01*
X112084000Y-45753000D02*
X112084000Y-44220000D01*
X112124000Y-42140000D02*
X112124000Y-40604000D01*
X112124000Y-45756000D02*
X112124000Y-44220000D01*
X112164000Y-42140000D02*
X112164000Y-40602000D01*
X112164000Y-45758000D02*
X112164000Y-44220000D01*
X112204000Y-42140000D02*
X112204000Y-40601000D01*
X112204000Y-45759000D02*
X112204000Y-44220000D01*
X112244000Y-42140000D02*
X112244000Y-40600000D01*
X112244000Y-45760000D02*
X112244000Y-44220000D01*
X112284000Y-42140000D02*
X112284000Y-40600000D01*
X112284000Y-45760000D02*
X112284000Y-44220000D01*
X114838775Y-44905000D02*
X114838775Y-44405000D01*
X115088775Y-44655000D02*
X114588775Y-44655000D01*
X114904000Y-43180000D02*
G75*
G02*
X109664000Y-43180000I-2620000J0D01*
G01*
X109664000Y-43180000D02*
G75*
G02*
X114904000Y-43180000I2620000J0D01*
G01*
%TO.C,C4*%
X164680000Y-123444000D02*
G75*
G02*
X160440000Y-123444000I-2120000J0D01*
G01*
X160440000Y-123444000D02*
G75*
G02*
X164680000Y-123444000I2120000J0D01*
G01*
%TD*%
M02*
